<?xml version="1.0" encoding="UTF-8" standalone="yes"?>
<svg width="60mm" height="60mm" viewBox="0 0 60 60" version="1.2" xml:space="preserve" baseProfile="tiny-ps" xmlns="http://www.w3.org/2000/svg">
  <title>bimi-svg-tiny-12-ps</title>
  <defs id="defs1"/>
  <g id="layer1" transform="translate(-76.60085,-116.57221)">
    <path d="m 84.904874,176.23637 c 0,-0.38171 1.530866,-4.96665 2.071821,-6.20509 0.208864,-0.47818 0.380509,-1.03688 0.381433,-1.24157 9.22e-4,-0.20469 0.161186,-0.68254 0.356141,-1.0619 0.194954,-0.37938 0.591049,-1.52782 0.88021,-2.5521 0.289162,-1.02429 0.597239,-1.86234 0.684617,-1.86234 0.08738,0 0.103835,1.06199 0.03657,2.35999 l -0.122294,2.35999 1.601211,-0.0838 c 1.42339,-0.0745 1.610878,-0.15274 1.688255,-0.70458 0.118427,-0.84459 0.593949,-0.78937 0.593949,0.0689 0,0.60247 0.118941,0.68976 0.939854,0.68976 0.580611,0 1.033636,-0.16973 1.185204,-0.44406 0.225502,-0.40813 0.258955,-0.40813 0.413582,0 0.298616,0.7882 2.349936,0.49176 2.381776,-0.34419 0.01189,-0.31218 0.09397,-0.26004 0.263619,0.16747 0.15993,0.403 0.476634,0.62078 0.902771,0.62078 0.858877,0 1.197317,-0.45352 1.305967,-1.75008 0.10294,-1.22831 -0.37091,-1.72306 -1.924053,-2.00894 -1.538149,-0.28312 -5.566003,-2.14556 -8.192692,-3.78823 -1.843473,-1.15287 -1.994508,-1.26668 -3.513466,-2.64739 -0.50913,-0.4628 -1.03009,-0.84145 -1.157688,-0.84145 -0.127598,0 -0.231997,-0.12596 -0.231997,-0.27991 0,-0.15396 0.459671,0.0306 1.02149,0.40989 0.561819,0.37941 1.450515,0.9164 1.97488,1.19331 0.524365,0.27692 1.198548,0.6465 1.498185,0.82129 1.886981,1.10081 6.88194,2.86807 9.397705,3.32501 4.765146,0.86547 5.505156,0.92685 9.533896,0.79077 4.64337,-0.15686 6.53158,-0.41951 9.39771,-1.30729 3.03765,-0.9409 7.17584,-3.0567 8.60822,-4.40126 3.64374,-3.42036 4.40844,-4.43037 5.55806,-7.34093 1.45898,-3.6938 1.13898,-8.65834 -0.79741,-12.37137 -1.30751,-2.50713 -1.37773,-2.89594 -0.30167,-1.67012 1.29942,1.48025 2.62559,3.50869 3.60763,5.51805 0.83195,1.70226 1.88978,6.44415 1.60517,7.1954 -0.0879,0.23207 -0.28812,1.2351 -0.44486,2.22895 -0.74805,4.74281 -5.01163,9.67932 -10.58619,12.25702 -0.95709,0.44255 -1.89206,0.80465 -2.07773,0.80465 -0.7537,0 -0.89836,0.66991 -0.53618,2.48312 0.86234,4.31726 1.49994,7.38963 1.74318,8.39978 0.14414,0.59861 0.20107,1.18836 0.12652,1.31054 -0.22937,0.37591 -39.8734,0.27833 -39.8734,-0.0981 z m 6.514328,-5.26672 c 0.329012,-0.88174 0.148927,-1.03463 -1.218658,-1.03463 -1.162526,0 -1.209711,0.0323 -1.209711,0.8277 0,0.78283 0.05956,0.82771 1.098366,0.82771 0.888816,0 1.142559,-0.11843 1.330003,-0.62078 z m 2.969569,-0.2759 c 0.07977,-0.70219 0.01381,-0.75873 -0.885291,-0.75873 -0.902293,0 -0.971484,0.0602 -0.971484,0.84519 0,0.78734 0.06059,0.83926 0.885292,0.75873 0.737674,-0.0721 0.899663,-0.21297 0.971483,-0.84519 z m 2.505301,0.68975 c 0.0021,-0.11381 0.07763,-0.48627 0.167969,-0.82771 0.147494,-0.55745 0.06672,-0.62077 -0.791768,-0.62077 -0.620479,0 -1.014048,0.15317 -1.121359,0.43642 -0.357408,0.94337 -0.179227,1.21899 0.788048,1.21899 0.524365,0 0.955065,-0.0931 0.95711,-0.20693 z m 2.554911,-0.22949 c 0.367142,-0.96907 0.189981,-1.25636 -0.71995,-1.1675 -0.737673,0.072 -0.899662,0.21298 -0.971483,0.84519 -0.07684,0.67645 0.0012,0.75873 0.719949,0.75873 0.483811,0 0.872252,-0.1745 0.971484,-0.43642 z m 2.889317,-0.39129 c 0,-0.61311 -0.12712,-0.8277 -0.49032,-0.8277 -0.62756,0 -1.14407,0.52315 -1.14407,1.15878 0,0.36788 0.21187,0.49663 0.81719,0.49663 0.7264,0 0.8172,-0.092 0.8172,-0.82771 z m 2.72769,0.62078 c 0.002,-0.11381 0.0802,-0.49617 0.17364,-0.84969 0.15251,-0.57685 0.0893,-0.63344 -0.61661,-0.55181 -0.62826,0.0727 -0.80389,0.24366 -0.87273,0.8497 -0.0742,0.65329 0.0109,0.75873 0.61289,0.75873 0.3845,0 0.70076,-0.0931 0.70281,-0.20693 z m 2.94264,-0.68975 c 0.0733,-0.64571 -0.0136,-0.75873 -0.58374,-0.75873 -0.65159,0 -1.00064,0.44735 -1.00064,1.28245 0,0.28408 0.22958,0.38285 0.7491,0.32231 0.58837,-0.0686 0.76758,-0.25009 0.83528,-0.84603 z m 2.77399,0.0689 c 0,-0.63883 -0.12214,-0.82771 -0.53522,-0.82771 -0.57667,0 -1.22958,0.94259 -0.95949,1.38522 0.0907,0.14861 0.46408,0.2702 0.82978,0.2702 0.55721,0 0.66493,-0.13409 0.66493,-0.82771 z m 3.92054,0.59968 c 0.28267,-0.46326 -0.17903,-1.42739 -0.68355,-1.42739 -0.38843,0 -0.51302,0.20103 -0.51302,0.82771 0,0.63539 0.12285,0.82771 0.52871,0.82771 0.29079,0 0.59133,-0.10261 0.66786,-0.22803 z m 2.88938,-0.16326 c 0,-0.8112 -0.35202,-1.26413 -0.98253,-1.26413 -0.65623,0 -0.80608,0.37549 -0.48651,1.219 0.20712,0.54671 1.46904,0.58547 1.46904,0.0452 z m 2.94636,-0.36744 c -0.0719,-0.63222 -0.23381,-0.77315 -0.97148,-0.84519 -0.77627,-0.0758 -0.88529,-0.005 -0.88529,0.5748 0,0.85674 0.19315,1.02912 1.15309,1.02912 0.70098,0 0.78018,-0.0854 0.70368,-0.75873 z m -17.41006,-3.69687 c 0.16448,-0.47789 0.29905,-1.02211 0.29905,-1.20939 0,-0.39118 -0.90057,-0.69776 -1.29255,-0.44002 -0.33395,0.2196 -0.68211,2.08166 -0.43586,2.33108 0.45788,0.46376 1.14849,0.1344 1.42936,-0.68167 z m 2.75736,0.16116 c 0.37626,-1.00237 0.34125,-1.13923 -0.33749,-1.319 -0.70533,-0.18683 -1.02121,0.20315 -1.02706,1.26798 -0.005,1.02425 0.98533,1.06129 1.36455,0.051 z m 2.72095,0.50078 c 0.002,-0.11381 0.0734,-0.46985 0.15855,-0.79122 0.12255,-0.46245 0.0126,-0.61184 -0.52767,-0.71643 -0.52393,-0.10146 -0.71811,0.002 -0.83581,0.44634 -0.27238,1.0276 -0.17366,1.26824 0.52022,1.26824 0.37454,0 0.68266,-0.0931 0.68471,-0.20693 z m 2.72025,-0.46655 c 0,-0.86849 -0.48223,-1.16354 -1.01677,-0.62212 -0.53214,0.53898 -0.26149,1.2956 0.46343,1.2956 0.40507,0 0.55334,-0.18046 0.55334,-0.67348 z m 2.58778,-0.13502 c 0,-0.86056 -0.55914,-1.04123 -0.94754,-0.30617 -0.36191,0.68492 -0.12984,1.17932 0.49624,1.0572 0.27082,-0.0529 0.4513,-0.35317 0.4513,-0.75103 z m 2.71623,0.54528 c 0.31283,-0.51267 -0.17396,-1.6681 -0.70278,-1.6681 -0.38419,0 -0.51527,0.19887 -0.51527,0.78173 0,0.42995 0.0817,0.8645 0.1816,0.96566 0.26578,0.26919 0.85114,0.22441 1.03645,-0.0793 z m 3.13659,-0.35755 c -0.008,-1.37156 -0.30275,-1.86235 -1.11764,-1.86235 -0.66155,0 -0.78542,0.11164 -0.78542,0.7079 0,1.0805 0.48346,1.77522 1.23538,1.77522 0.51577,0 0.67054,-0.14389 0.66768,-0.62077 z m -11.04199,-9.27103 c -0.28051,-0.25498 -2.07809,-0.73752 -3.76879,-1.01169 -0.58214,-0.0944 -1.49967,-0.41117 -2.03895,-0.70392 -0.53928,-0.29276 -1.31941,-0.53228 -1.73363,-0.53228 -0.41422,0 -0.75312,-0.0939 -0.75312,-0.20855 0,-0.1147 -0.39838,-0.3706 -0.885295,-0.56865 -0.934171,-0.37999 -5.221469,-2.53125 -6.603849,-3.31367 -0.448474,-0.25383 -1.014457,-0.67879 -1.257739,-0.94434 -0.243281,-0.26556 -0.554568,-0.48284 -0.691747,-0.48284 -0.267203,0 -1.356351,-0.81197 -2.590582,-1.93131 -0.418305,-0.37936 -1.270454,-1.1243 -1.893666,-1.65541 -0.623213,-0.53111 -1.536714,-1.4002 -2.030003,-1.93131 -1.904377,-2.0504 -3.107395,-3.45639 -3.111084,-3.636 -0.0022,-0.10292 -0.157069,-0.35464 -0.344342,-0.55925 -0.708185,-0.77378 -1.485301,-2.08024 -2.427951,-4.08182 -1.763457,-3.74444 -1.998798,-4.75372 -1.994351,-8.55297 0.0038,-3.27901 0.04569,-3.53847 0.850222,-5.27106 0.953279,-2.05292 2.289959,-3.67411 4.148754,-5.0318 1.885037,-1.37686 2.457145,-1.4988 1.42031,-0.30271 -1.358478,1.56712 -2.075703,2.87269 -2.726686,4.96337 -1.042841,3.34918 -0.534228,7.97762 1.335654,12.15461 0.936781,2.09262 3.550835,6.17358 3.956702,6.17706 0.176015,0.001 0.272397,-3.14603 0.272397,-8.89566 v -8.898 l 19.135906,-0.0708 19.13591,-0.0708 v 14.99424 14.99424 l -0.69382,0.32019 c -0.38159,0.1761 -0.99448,0.32018 -1.36198,0.32018 h -0.66817 v -12.96955 -12.96955 l -16.41194,0.0711 -16.411933,0.0711 -0.07203,8.29808 -0.07203,8.2981 1.023702,0.94354 c 1.665241,1.53482 4.122157,3.56678 4.312736,3.56678 0.0973,0 0.5411,0.31039 0.986222,0.68976 0.445123,0.37936 0.983778,0.68975 1.19701,0.68975 0.213233,0 0.387697,0.12352 0.387697,0.2745 0,0.15096 0.551604,0.5371 1.225787,0.85809 0.674184,0.32098 1.225788,0.69408 1.225788,0.82911 0,0.13504 0.153223,0.24605 0.340496,0.24668 0.187273,6.3e-4 0.943515,0.31102 1.680545,0.68975 0.73704,0.37874 1.50315,0.6886 1.70248,0.6886 0.19934,0 0.36244,0.10451 0.36244,0.23223 0,0.12772 0.74132,0.45956 1.64739,0.73742 0.90608,0.27787 1.71007,0.60792 1.78667,0.73344 0.0766,0.12553 0.38105,0.22823 0.67656,0.22823 0.29552,0 1.29956,0.26186 2.23121,0.58193 2.86612,0.98465 8.91718,1.44573 12.86217,0.98008 l 1.63438,-0.19291 -1.4958,0.43044 c -0.82269,0.23674 -1.61332,0.54947 -1.75696,0.69496 -0.32504,0.32922 -11.38239,0.35681 -11.7427,0.0293 z m -5.23681,-11.62972 c -0.49064,-0.303 -1.01166,-0.89227 -1.15781,-1.3095 -0.14614,-0.41724 -0.38825,-0.9742 -0.53801,-1.2377 -0.34242,-0.6025 -0.35988,-4.81359 -0.0208,-5.02583 0.13828,-0.0865 0.32911,-0.51557 0.42403,-0.95333 0.0949,-0.43777 0.41081,-1.01429 0.70196,-1.28116 0.51143,-0.4688 0.52935,-0.46071 0.52935,0.2389 0,0.39827 -0.26452,1.19349 -0.58781,1.76715 -0.87081,1.5452 -0.8063,4.01417 0.14476,5.54013 0.75561,1.21236 1.82841,1.72581 2.59629,1.24261 1.77229,-1.11526 2.26667,-4.74926 0.97932,-7.19864 -0.96318,-1.83262 -0.83673,-2.67939 0.22301,-1.49333 1.87779,2.10163 1.65054,7.61857 -0.38983,9.46366 -1.04149,0.94179 -1.69007,0.99697 -2.90443,0.24704 z m 0.94315,-5.97097 c -0.32423,-0.32841 -0.21767,-6.66778 0.11558,-6.87639 0.59537,-0.37268 0.78673,0.6175 0.71914,3.72124 -0.0636,2.92007 -0.2756,3.72146 -0.83472,3.15515 z" id="path2" fill="#000000" stroke-width="1.03614"/>
    <path d="m 84.666668,174.52487 c 0,-0.37074 1.486952,-4.82416 2.012389,-6.02708 0.202873,-0.46446 0.369594,-1.00713 0.370491,-1.20594 8.96e-4,-0.19881 0.156563,-0.66297 0.345925,-1.03145 0.189362,-0.3685 0.574095,-1.48401 0.854961,-2.47889 0.280867,-0.99491 0.580107,-1.80893 0.664978,-1.80893 0.08487,0 0.100857,1.03153 0.03552,2.29229 l -0.118786,2.29232 1.555279,-0.0813 c 1.38256,-0.0722 1.564669,-0.1484 1.639827,-0.68441 0.11503,-0.82033 0.576911,-0.76669 0.576911,0.0669 0,0.58517 0.115529,0.66998 0.912894,0.66998 0.563955,0 1.003985,-0.16489 1.151205,-0.43132 0.219034,-0.39643 0.251527,-0.39643 0.401718,0 0.29005,0.76557 2.282527,0.47765 2.313454,-0.33434 0.01155,-0.30324 0.09127,-0.25258 0.256057,0.16266 0.155342,0.39144 0.462961,0.603 0.876874,0.603 0.834241,0 1.162973,-0.44054 1.268508,-1.69989 0.09998,-1.19308 -0.360276,-1.67364 -1.868864,-1.95134 -1.494026,-0.27498 -5.406338,-2.08399 -7.957679,-3.67955 -1.790592,-1.11979 -1.937294,-1.23034 -3.41268,-2.57144 -0.494525,-0.44951 -1.000541,-0.81731 -1.124479,-0.81731 -0.123938,0 -0.225342,-0.12234 -0.225342,-0.27189 0,-0.14954 0.446485,0.0296 0.992188,0.39814 0.545703,0.36854 1.408906,0.8901 1.918229,1.15907 0.509323,0.26898 1.164167,0.62796 1.455209,0.79773 1.832851,1.06926 6.684527,2.7858 9.128125,3.22963 4.62845,0.84065 5.34723,0.90028 9.26041,0.76809 4.51017,-0.15235 6.34421,-0.40747 9.12813,-1.26979 2.95051,-0.91392 6.96999,-2.969 8.36128,-4.27499 3.53922,-3.32226 4.28199,-4.30327 5.39863,-7.13035 1.41713,-3.58785 1.10631,-8.40998 -0.77454,-12.01651 -1.27,-2.43522 -1.33821,-2.81286 -0.29301,-1.6222 1.26214,1.43779 2.55027,3.40805 3.50414,5.35974 0.80808,1.65346 1.83557,6.2593 1.55912,6.989 -0.0854,0.22541 -0.27985,1.19967 -0.4321,2.16503 -0.72658,4.60675 -4.86786,9.40167 -10.2825,11.90541 -0.92965,0.42987 -1.83779,0.78157 -2.01813,0.78157 -0.73208,0 -0.8726,0.6507 -0.5208,2.41191 0.8376,4.19339 1.45691,7.17765 1.69317,8.15881 0.14001,0.58144 0.19531,1.15426 0.12289,1.27296 -0.2228,0.36511 -38.729607,0.27033 -38.729607,-0.0954 z m 6.32746,-5.11562 c 0.319574,-0.85646 0.144655,-1.00496 -1.1837,-1.00496 -1.129178,0 -1.17501,0.0314 -1.17501,0.80396 0,0.76037 0.05785,0.80395 1.066859,0.80395 0.86332,0 1.109784,-0.11501 1.291851,-0.60295 z m 2.884385,-0.26799 c 0.07748,-0.68205 0.01341,-0.73697 -0.859896,-0.73697 -0.87641,0 -0.943616,0.0584 -0.943616,0.82093 0,0.76478 0.05885,0.81519 0.859896,0.73698 0.716514,-0.0699 0.873856,-0.20686 0.943616,-0.82094 z m 2.433435,0.66996 c 0.002,-0.11054 0.0754,-0.47231 0.16315,-0.80397 0.143263,-0.54146 0.06481,-0.60296 -0.769055,-0.60296 -0.60268,0 -0.98496,0.14877 -1.089192,0.42389 -0.347156,0.91631 -0.174086,1.18402 0.765442,1.18402 0.509323,0 0.927668,-0.0905 0.929655,-0.20098 z m 2.481621,-0.22289 c 0.356611,-0.9413 0.184532,-1.22035 -0.699297,-1.13403 -0.716513,0.0699 -0.873855,0.20689 -0.943616,0.82096 -0.07464,0.65705 0.0012,0.73694 0.699297,0.73694 0.469933,0 0.847231,-0.16948 0.943616,-0.42387 z M 101.6,169.20825 c 0,-0.59554 -0.12347,-0.80396 -0.47625,-0.80396 -0.60956,0 -1.11125,0.50816 -1.11125,1.12556 0,0.35731 0.20579,0.48235 0.79375,0.48235 0.70556,0 0.79375,-0.0894 0.79375,-0.80395 z m 2.64945,0.60297 c 0.002,-0.11054 0.0779,-0.48195 0.16866,-0.82533 0.14813,-0.5603 0.0867,-0.61524 -0.59892,-0.53598 -0.61024,0.0705 -0.78083,0.23668 -0.8477,0.82535 -0.0721,0.63455 0.0106,0.73694 0.59531,0.73694 0.37347,0 0.68066,-0.0905 0.68265,-0.20098 z m 2.85823,-0.66996 c 0.0712,-0.6272 -0.0132,-0.73697 -0.567,-0.73697 -0.6329,0 -0.97193,0.43451 -0.97193,1.24565 0,0.27595 0.22299,0.37188 0.72761,0.31308 0.57149,-0.0666 0.74556,-0.24293 0.81132,-0.82176 z m 2.69441,0.0669 c 0,-0.6205 -0.11863,-0.80396 -0.51986,-0.80396 -0.56013,0 -1.19431,0.91558 -0.93197,1.34548 0.0881,0.14435 0.45077,0.26244 0.80598,0.26244 0.54122,0 0.64585,-0.13024 0.64585,-0.80396 z m 3.80808,0.58248 c 0.27456,-0.44998 -0.17389,-1.38644 -0.66394,-1.38644 -0.37729,0 -0.49831,0.19526 -0.49831,0.80396 0,0.61716 0.11933,0.80396 0.51355,0.80396 0.28245,0 0.57437,-0.0998 0.6487,-0.22148 z m 2.8065,-0.15857 c 0,-0.78794 -0.34193,-1.22787 -0.95435,-1.22787 -0.6374,0 -0.78296,0.36471 -0.47255,1.18405 0.20118,0.53102 1.4269,0.56865 1.4269,0.044 z m 2.86184,-0.35689 c -0.0698,-0.61407 -0.2271,-0.75099 -0.94361,-0.82096 -0.75401,-0.0735 -0.8599,-0.005 -0.8599,0.55831 0,0.83218 0.18761,0.99959 1.12001,0.99959 0.68088,0 0.7578,-0.0828 0.6835,-0.73694 z m -16.91064,-3.59083 c 0.15976,-0.4642 0.29047,-0.99279 0.29047,-1.17472 0,-0.37996 -0.87474,-0.67774 -1.25547,-0.42739 -0.32437,0.21332 -0.66255,2.02196 -0.42336,2.26423 0.44474,0.45046 1.11554,0.13053 1.38836,-0.66212 z m 2.67826,0.15654 c 0.36547,-0.97362 0.33146,-1.10655 -0.32781,-1.28117 -0.6851,-0.18146 -0.99191,0.19733 -0.9976,1.23159 -0.005,0.99489 0.95707,1.03086 1.32541,0.0496 z m 2.6429,0.4864 c 0.002,-0.11055 0.0713,-0.45636 0.154,-0.76853 0.11903,-0.44918 0.0122,-0.59428 -0.51253,-0.69586 -0.5089,-0.0987 -0.69751,0.002 -0.81184,0.43352 -0.26456,0.99816 -0.16868,1.23189 0.5053,1.23189 0.3638,0 0.66308,-0.0907 0.66507,-0.20102 z m 2.64222,-0.45316 c 0,-0.84355 -0.4684,-1.13016 -0.98761,-0.60426 -0.51687,0.52351 -0.25399,1.25844 0.45014,1.25844 0.39345,0 0.53747,-0.17528 0.53747,-0.65418 z m 2.51354,-0.13114 c 0,-0.83587 -0.5431,-1.01136 -0.92036,-0.29738 -0.35152,0.66526 -0.12611,1.14546 0.48201,1.02685 0.26305,-0.0514 0.43835,-0.34304 0.43835,-0.72947 z m 2.63832,0.52964 c 0.30385,-0.49798 -0.16897,-1.62025 -0.68262,-1.62025 -0.37317,0 -0.50049,0.19316 -0.50049,0.75929 0,0.41763 0.0794,0.8397 0.17639,0.93796 0.25815,0.26148 0.82672,0.21797 1.00672,-0.0768 z m 3.04661,-0.34732 c -0.008,-1.3322 -0.29406,-1.8089 -1.08558,-1.8089 -0.64257,0 -0.76289,0.10845 -0.76289,0.68758 0,1.04952 0.46959,1.72432 1.19994,1.72432 0.50098,0 0.65131,-0.13976 0.64853,-0.603 z m -10.72524,-9.00507 c -0.27246,-0.24767 -2.01848,-0.71634 -3.66068,-0.98267 -0.56544,-0.0918 -1.45665,-0.39938 -1.98046,-0.68372 -0.52381,-0.28435 -1.28156,-0.51702 -1.6839,-0.51702 -0.40234,0 -0.731522,-0.0912 -0.731522,-0.20257 0,-0.11141 -0.386953,-0.35997 -0.859896,-0.55234 -0.907374,-0.36909 -5.071688,-2.45863 -6.414413,-3.21861 -0.43561,-0.24656 -0.985357,-0.65931 -1.22166,-0.91725 -0.236303,-0.25794 -0.53866,-0.46898 -0.671904,-0.46898 -0.259538,0 -1.317443,-0.7887 -2.51627,-1.87591 -0.406305,-0.36849 -1.23401,-1.09207 -1.839345,-1.60793 -0.605335,-0.51589 -1.492632,-1.36003 -1.971771,-1.87591 -1.849748,-1.9916 -3.018257,-3.35725 -3.02184,-3.5317 -0.0021,-0.10009 -0.152563,-0.34447 -0.334464,-0.54321 -0.687871,-0.75159 -1.442695,-2.02058 -2.358304,-3.96472 -1.712871,-3.63704 -1.941461,-4.61736 -1.937142,-8.30762 0.0037,-3.18498 0.04438,-3.43699 0.825833,-5.11989 0.925934,-1.99403 2.22427,-3.56871 4.029744,-4.88745 1.830964,-1.33735 2.386661,-1.45582 1.379568,-0.294 -1.319509,1.52216 -2.01616,2.79025 -2.648469,4.82099 -1.012927,3.25311 -0.518904,7.74876 1.297339,11.80595 0.909909,2.03258 3.448977,5.99648 3.843202,5.99985 0.170966,0.001 0.264583,-3.05578 0.264583,-8.64049 v -8.64276 l 18.586981,-0.0687 18.58698,-0.0687 v 14.56411 14.56414 l -0.67391,0.31099 c -0.37065,0.17104 -0.96596,0.31099 -1.32292,0.31099 h -0.649 V 139.7276 127.13009 l -15.94115,0.069 -15.941147,0.069 -0.06996,8.06004 -0.06996,8.06007 0.994337,0.91646 c 1.617472,1.49081 4.00391,3.46449 4.189022,3.46449 0.09451,0 0.525578,0.30148 0.957932,0.66998 0.432354,0.36847 0.955557,0.66996 1.162673,0.66996 0.207116,0 0.376575,0.11996 0.376575,0.26661 0,0.14663 0.535781,0.52171 1.190625,0.83349 0.654844,0.31177 1.190625,0.67416 1.190625,0.80531 0,0.13118 0.148828,0.23899 0.330729,0.23962 0.181901,6.2e-4 0.916455,0.30209 1.632339,0.66995 0.71589,0.36789 1.46003,0.66885 1.65364,0.66885 0.19362,0 0.35204,0.10152 0.35204,0.22557 0,0.12405 0.72006,0.44637 1.60014,0.71628 0.88008,0.26989 1.66101,0.59047 1.73541,0.71239 0.0744,0.12193 0.37012,0.22168 0.65716,0.22168 0.28704,0 1.26228,0.25437 2.1672,0.56525 2.78391,0.95639 8.66139,1.40426 12.49321,0.95195 l 1.5875,-0.18738 -1.45289,0.41811 c -0.79909,0.22992 -1.56704,0.53369 -1.70656,0.67503 -0.31572,0.31976 -11.05588,0.34656 -11.40586,0.0283 z m -5.08659,-11.2961 c -0.47657,-0.29433 -0.98264,-0.8667 -1.1246,-1.27195 -0.14195,-0.40527 -0.37711,-0.94626 -0.52257,-1.2022 -0.3326,-0.58523 -0.34956,-4.67552 -0.0202,-4.88166 0.13432,-0.0841 0.31967,-0.50078 0.41187,-0.92598 0.0922,-0.42521 0.39902,-0.9852 0.68182,-1.24441 0.49676,-0.45538 0.51417,-0.44749 0.51417,0.23203 0,0.38687 -0.25693,1.15926 -0.57095,1.71648 -0.84583,1.50086 -0.78317,3.89902 0.14061,5.38121 0.73393,1.17758 1.77596,1.67629 2.52181,1.20696 1.72145,-1.08327 2.20165,-4.61302 0.95123,-6.99214 -0.93555,-1.78006 -0.81273,-2.60254 0.21661,-1.45049 1.82393,2.04134 1.60319,7.40003 -0.37865,9.19219 -1.01161,0.91476 -1.64159,0.96837 -2.82111,0.23996 z m 0.9161,-5.79971 c -0.31493,-0.31898 -0.21143,-6.47651 0.11226,-6.67912 0.57829,-0.36199 0.76416,0.59978 0.69851,3.61447 -0.0618,2.83633 -0.26769,3.61472 -0.81077,3.06465 z" id="path1" fill="#000000" stroke-width="1.00642"/>
  </g>
</svg>