<?xml version="1.0" encoding="UTF-8"?>
<svg width="600" height="600" version="1.1" viewBox="0 0 600 600" xmlns="http://www.w3.org/2000/svg">
  <path fill="#000000" d="M112.83 532.2l0.0321-3 14.703-40.8 4.821-20.4h4.4112v-6.569l15.946-48.736 6.194-5.8944-2.723 9.6-0.5806 33.6 0.3605 4.8 21.038-0.5675 4.8208-2.9796 1.565-8.3424 1.565-8.3424 2.307-1.4264 2.307-1.4262 0.0055 11.542 0.0055 11.542 14.403 0.5118 2.9932-9.8558 2.9932-9.8558 2.4 18.803 13.58 0.5719 2.5406-4.7474 2.5406-4.7474 3.7262-12.28 0.4126 21.981 10.8-0.3812 2.915-4.8 2.915-4.8 0.0849-4.8738 0.0851-4.8738-15.6-6.0108-36-12.487-2.4-2.9542-28.8-14.33-30.374-20.695-17.369-15.375-11.057-11.501v-4.6867l3 2.259 3 2.2591 28.8 18.59 1.6 3.8796h4.4978l39.502 18.662 21.6 5.8661 9.6 3.9098 14.4 2.9366 33.6 7.7088 93.6 0.4838 26.4-6.1786 19.2-5.1365 9.6-3.9511 12-3.1102 28.8-14.26 14.175-8.1319 12.175-10.8h3.4308l12.641-12.641 22.928-29.359 10.128-23.136 7.1563-37.725-3.467-19.719-3.467-19.719-1.5088-5.0498-1.5088-5.0498-14.153-28.272-12.4-16.258 2.1943-2.1943 22.776 22.137 18.194 24.629 7.4671 15.579 7.4671 15.579 7.3706 28.608v16.903 16.903l-9.2746 32.431-15.076 26.35-24.706 27.033-24.144 17.741-26.4 14.255-22.8 8.5718 0.0574 2.8015 0.0571 2.8015 4.789 19.2 7.1592 36 7.0373 31.2 0.05 6.6 0.0501 6.6h-355.2zm57.569-46.003v-1.0037l2.9136-7.5926h-19.714v9.6h16.8zm26.4 0v-1.0037l2.9136-7.5926h-14.914v9.6h12zm23.555-4.3963 0.7965-4.2h-14.752v9.9187l13.159-1.5188zm22.045 0.6v-4.8h-11.44l-2.5104 9.6h13.95zm24 0v-4.8h-7.2v2.0074l-2.9136 7.5926h10.114zm25.951-0.6 0.8005-4.2h-9.9518v2.0074l-3.0756 8.015 11.427-1.6224zm24.448 0.424 0-4.9759l-8.3448 1.6071-1.6071 8.3448h9.9518zm24 3.9722v-1.0037l2.9136-7.5926h-10.114v2.0074l-2.9136 7.5926h10.114zm35.548-3.1687-0.8035-4.1724-8.3448-1.6071v9.9518h9.9518zm24.451 3.1687v-1.0037l-1.4568-3.7963-1.4568-3.7963h-6.6864v6.4l1.6 1.6 1.6 1.6h6.4zm28.356-3.1963-0.7965-4.2-13.159-1.5188v9.9187h14.752zm-154.81-35.227 2.2425-6.7277-3.2724-2.0225-3.2724-2.0225-3.0204 3.4001-2.9323 12.487 3.2126 3.2126 2.4-0.80002 2.4-0.80001zm23.257 5.6239v-1.8037l2.9136-7.5926h-10.114v11.2h7.2zm25.975-3.0227 0.776-3.9732h-9.9518v9.1752l8.4-1.2287zm22.024-0.5149v-3.4584h-4.2864l-2.5829 6.7308 2.7389 2.7389h4.1304-2.553zm23.012-2.8462-1.4122-1.4122-1.4965 1.4965-1.4965 1.4965 3.7358 8.6071 1.0407-4.3879 1.0407-4.3879zm24.182 0.7492-1.4434-3.7613h-7.3507v6.24l5.76 5.76 4.4774-4.4774zm28.166 3.8398-0.24-2.801-0.72-9.6h-8.64l-5.3887 5.3887 4.8206 10.58 10.408-0.76678zm-73.159-73.395-1-0.99259-38.4-5.3292-33.6-10.135-26.4-9.5561-50.4-24.118-1.6-4.0759-5.6-0.07339-24-16.878-16.8-11.173-16.108-15.076h-2.7194l-34.056-34.8-28.716-38.41-20.141-40.79-9.8592-32.906v-45.074l10.218-30.019 6.5815-7.578v-2.7163-2.7163l30.787-30.636 14.813-6.1356v-3.6972l13.2-3.1483 9.6-2.8445-21.063 17.647-14.327 17.825-14.945 31.2 0.1556 30 0.1556 30 11.03 31.2 11.016 24.516 18.378 27.689 5.9292 10.196 0.0708-157.2h345.6v266.52l-12.312 4.6812h-16.44l-1.2475-224.4h-285.6l-0.6354 69.665-0.6354 69.665 20.471 19.672 30.96 24.595h5.8404l0.8 1.9397 0.8 1.9397 26.897 17.72 6.7032 0.10656 12 9.3866 3.4687 0.10656 27.732 12.497 9.6 4.1021 36 11.598 33.6 6.222 2.28 1.9908 2.28 1.9909h77.654l17.232-7.2h7.2036l-1.1748 3.0614-1.1748 3.0614-27.499 10.715-38.4 7.1616-53.2 0.000816zm-74.009-107.56-7.5778-7.7508-7.6339-26.261 1.3473-17.814 1.3473-17.814 13.525-21.825 6-1.9841v16.925l-10.121 17.153 0.8993 17.809 0.8993 17.809 11.559 12.304 12.363-0.1526 8.1226-6.1738 7.4076-21.274 0.035-6.6326 0.0348-6.6326-3.9878-8.3349-8.0122-15.989-0.8648-10.411-2.7353 35.506-8.5366 5.2946-4.5898-7.2-0.0368-26.542-0.0368-26.542 3.1625-4.3248 3.1625-4.3248 8.075 8.075 0.0368 10.029 0.0368 10.029 4.5118-7.1357 9.401 10.091 10.014 21.981v36.526l-5.1305 11.268-5.1305 11.268-12.539 10.794-17.43 0.0048z"/>
</svg>