<svg xmlns="http://www.w3.org/2000/svg" width="600" height="600">
    <path d="m112.83 532.2.032-3 14.703-40.8 4.821-20.4h4.411v-6.569l15.946-48.736 6.194-5.894-2.723 9.6-.58 33.6.36 4.8 21.038-.568 4.821-2.98 1.565-8.342 1.565-8.342 2.307-1.427 2.307-1.426.005 11.542.006 11.542 14.403.512 2.993-9.856 2.993-9.856 2.4 18.803 13.58.572 2.541-4.747 2.54-4.748 3.727-12.28.412 21.981 10.8-.38 2.915-4.8 2.915-4.8.085-4.875.085-4.873-15.6-6.011-36-12.487-2.4-2.954-28.8-14.33-30.374-20.695-17.369-15.375-11.057-11.501v-4.687l3 2.259 3 2.259 28.8 18.59 1.6 3.88h4.498l39.502 18.662 21.6 5.866 9.6 3.91 14.4 2.936 33.6 7.709 93.6.484 26.4-6.179 19.2-5.136 9.6-3.952 12-3.11 28.8-14.26 14.175-8.132 12.175-10.8h3.431l12.641-12.64 22.928-29.36 10.128-23.136 7.156-37.725-3.467-19.719-3.467-19.719-1.508-5.05-1.51-5.05-14.152-28.271-12.4-16.258 2.194-2.195 22.776 22.137 18.194 24.63 7.467 15.578 7.467 15.58 7.37 28.607v33.806l-9.274 32.431-15.076 26.35-24.706 27.033-24.144 17.741-26.4 14.255-22.8 8.572.058 2.802.057 2.801 4.789 19.2 7.159 36 7.037 31.2.05 6.6.05 6.6h-355.2zm57.569-46.003v-1.004l2.914-7.592h-19.714v9.6h16.8zm26.4 0v-1.004l2.914-7.592h-14.914v9.6h12zm23.555-4.396.797-4.2h-14.752v9.918l13.159-1.518zm22.045.6v-4.8h-11.44l-2.51 9.6h13.95zm24 0v-4.8h-7.2v2.007l-2.914 7.593H266.4zm25.951-.6.8-4.2H283.2v2.007l-3.076 8.015 11.427-1.622zm24.448.424v-4.976l-8.345 1.607-1.607 8.345h9.952zm24 3.972v-1.004l2.914-7.592h-10.114v2.007l-2.914 7.593h10.114zm35.548-3.169-.803-4.172-8.345-1.607v9.952h9.952zm24.451 3.169v-1.004l-1.457-3.796-1.457-3.796h-6.686v6.4l1.6 1.6 1.6 1.6h6.4zM429.153 483l-.796-4.2-13.16-1.52v9.92h14.753zm-154.81-35.227 2.243-6.728-3.273-2.023-3.272-2.022-3.02 3.4-2.933 12.487 3.213 3.213 2.4-.8 2.4-.8zm23.257 5.624v-1.804l2.914-7.593H290.4v11.2h7.2zm25.975-3.023.776-3.973h-9.952v9.175l8.4-1.229zm22.024-.515v-3.458h-4.286l-2.583 6.73 2.739 2.74h4.13-2.553zm23.012-2.846-1.412-1.412-1.497 1.496-1.496 1.497 3.736 8.607 1.04-4.388 1.041-4.388zm24.182.749-1.443-3.761h-7.351v6.24l5.76 5.76 4.477-4.478zm28.166 3.84-.24-2.801-.72-9.6h-8.64l-5.389 5.388 4.82 10.58 10.409-.766zM347.8 378.208l-1-.993-38.4-5.33-33.6-10.134-26.4-9.556-50.4-24.118-1.6-4.076-5.6-.073-24-16.878-16.8-11.173-16.108-15.076h-2.72L97.118 246 68.4 207.59 48.26 166.8l-9.86-32.906V88.82L48.618 58.8l6.582-7.577V45.79l30.787-30.636L100.8 9.019V5.322L114 2.174l9.6-2.845-21.063 17.647L88.21 34.801l-14.945 31.2.156 30 .155 30 11.03 31.2 11.016 24.516L114 209.407l5.93 10.195.07-157.2h345.6v266.52l-12.312 4.682h-16.44l-1.247-224.4H150l-.636 69.665-.635 69.665 20.47 19.672 30.96 24.595h5.841l.8 1.94.8 1.939 26.897 17.72 6.703.106 12 9.387 3.47.107 27.731 12.497 9.6 4.102 36 11.598 33.6 6.222 2.28 1.99 2.28 1.991h77.654l17.232-7.2h7.204l-1.175 3.062-1.175 3.061-27.499 10.715-38.4 7.162h-53.2zm-74.009-107.56-7.578-7.751-7.634-26.261 1.348-17.814 1.347-17.814 13.525-21.825 6-1.984v16.925l-10.121 17.153.9 17.809.899 17.809 11.559 12.304 12.363-.153 8.122-6.174 7.408-21.274.035-6.632.035-6.633-3.988-8.335-8.012-15.989-.865-10.41-2.736 35.505-8.536 5.295-4.59-7.2-.037-26.542-.037-26.542 3.163-4.325 3.162-4.325 8.075 8.075.037 10.03.037 10.028 4.512-7.135 9.4 10.09 10.015 21.982v36.526l-5.13 11.268-5.131 11.268-12.54 10.794-17.43.004z"/>
</svg>
