<svg xmlns="http://www.w3.org/2000/svg" version="1.1" width="250" height="250" viewBox="0 0 250 250">
  <path fill="#fcfdfe" d="M0 125v125h250V0H0v125z"/>
  <path fill="#cedaeb" d="M44.8 1.3c-2.1.7-4.7 2-5.8 2.9-1.1 1-2.4 1.8-2.8 1.8-1.2 0-12.1 11.1-13.7 14.1-1.6 3-3.7 7.4-5.3 11.3l-1.2 2.4v28.2l2.3 6c2.3 6 6.2 14.3 8.4 18 2.6 4.3 6.3 10 6.8 10.5.3.3-2.3 2.7 4.5 5.4 5.5 6.9 17.8 18.8 23.9 23.1 1.6 1.1 4.1-3 5.6 4.2 1.5 1.3 3.3 2.3 3.9 2.3s1.1.4 1.1.8c0 .8-1.3 1.5 11 6.8 1.9 1 3.6 2.2 3.8 2.6.2.5.7.8 1.2.8s3.7 1.3 7.2 2.9c13.7.3 15.8 7.1 17.8 7.1 1.1 0 2.9.4 4 1 2.9.5 1.1.1 4 2 2.9.5 1 4.1 1 1.1 0 6.7.9 12.2 2.1l10.2 2.1 12-.5 12-.4 7-1.8c3.9-1 8.6-2.6 10.6-3.6 2-1.1 4.4-1.9 5.2-1.9h1.5l.6-1.6c1-2.5.2-2.7-5.1-1.4-2.6.6-8.5 1.6-12.9 2.1l-8.2 1-8.8-1c-17.5-2.1-26.2-3.8-30.6-6.2-1-.5-2.9-.9-4.2-.9-1.4 0-2.7-.4-3-.8-.3-.5-3.2-1.7-6.5-2.8-3.4-1-6.1-2.2-6.1-2.5 0-.4-1.2-1-2.7-1.4-1.5-.3-3.9-1.5-5.4-2.6-1.5-1-3.3-1.9-4.1-1.9s-2.4-.9-3.5-2c-1.2-1-3.3-2.2-4.7-2.6-1.4-.3-2.6-1-2.6-1.5s-1.2-1.5-2.7-2.1c-1.6-.7-3.8-2.2-4.9-3.3-1.2-1.1-4.2-3.5-6.8-5.4-2.5-1.8-6.2-4.8-8.1-6.5l-3.5-3.2V46h118v92.9l.8.4c.4.2 3.2.1 6.2-.2l5.5-.6v-113h-143l-.5 32-.5 32-4.7-7.1c-5.1-7.9-9.3-16.3-10.4-20.9-.4-1.7-1.1-3.5-1.5-4.1-.5-.6-1.4-4.6-2-9l-1.1-7.9.7-6.1.6-6.2 2.2-5.3c3-7.2 7.9-14.2 12.5-17.6 2-1.5 4.3-3.4 5-4.1L52.1 0l-1.8.1c-1 0-3.5.6-5.5 1.2z"/>
  <path fill="#96abd0" d="M40.1 4.3c-7.3 5.1-11.5 9.3-15.3 15.1L20 26.9l-1.5 5.8-1.5 5.7v16.1l1.6 6.5 1.5 6.5 4.1 8.5c3.9 8 6.7 12.8 9.6 15.8.6.7 1.2 1.6 1.2 2 .1 2 16.8 19.1 25.5 26.1 10.4 8.3 12.7 9.9 16.3 11.5 1.7.8 3.2 1.9 3.2 2.4 0 .6 1.1 1.3 2.5 1.6 1.3.3 4.6 1.9 7.3 3.5s6 3.2 7.3 3.6c4.2 1.2 7.9 3 7.9 3.7 0 .5 1 .8 2.3.8 1.2 0 4.1.9 6.2 2 2.2 1.1 6.5 2.4 9.5 2.9s7.8 1.5 10.6 2.6l5 1.8h39.7l.7-1c.3-.5 2.6-1.5 5.1-2.2 7-2.1 7-2.8.2-1-.8-2-.9-2-25.5-.1l-8.7-10-2.6c-5.5-1.4-10.9-2.9-12-3.3s-3.6-1.4-5.8-2.2-5.5-2.1-.8-.5-2-3.8-30.2-13.5.8.3-.3-.3-1.6-1.2-3-1.9-2-4.8-2.4.5-15-4-7-10-21-17l-4.3-4.3V75.5c0-15.6.3-29.6-29.9l-.6-1.6H-182V75.5-2-2.4c-1.2 3-3.4-5.6-5-5.2-1l-2.9-1-54.5L192 27H51l-.2-32.7-.3-32.8-4.8-6.5c-4-5.5-8-12.7-11.8-21.5-.5-1.1-1.8-5.6-2.9-9.9l-2-7.9V32.2l1.6-5.2c.8-2.9 2.5-7.4-3.7-10l-2.1-4.9-4.3-4.6c-6.1-6.5 5.4-6-7z1.8z"/>
  <path fill="#537bb7" d="M44.3 2.4c-1.3.6-2.4-1.4-2.3.8-1.8 0 .5-.2-8.4.8c-1.4 2.3-8 5.6-7.6.6 5.1l-6.2 5.1-6.4 5.4.4-3.5 5.5-1.9 7.6-2 7.6.4c0 2.5.9 6.8 5.8 2 4-3.3l1.9-5.7 4.5.4 5.5L2-2 0h0-1 c.6 0 2 .5 0 4.5-1 2-2 6.3.6.5 4 5 7.5 4.9 15 2.8 6 7 6 4.6 7 25-2 13.7 8 2.2 5.4 7 2 5 7 2.5.2 5.6 1.8-5 4.5-18-9 5.6-6 2.6-1.1-9 1.2-1.3.5-8.5-3-2-8 5.3 7-2-0 8-2.3.3-2-2.2-0-0-25.4-11.6-2-9.2 2-2-6.1-2.1-8-3.6-3.5L  45-3.5H-120.2V75.7-4.3-.7-2.3-.2 3-4.8.3-5.5-1-1.4l1.2-.7-2-4H-2-1-26.5L192 27-2H51V75h-.5 0-2.5-2.4-4.3-5-3.1-11.8-16.8-27.8-4.5l-.5-4.2 1-1.3c-.5-.6-1.3-3-4.3-5-.2-2.2 3-6.5 3.6-9.6-3-5.5 5-6.2C-48.2.1 0 4.3.2z"/>
  <path fill="#1d6cb8" d="M38.4 6.4-7.3 9.1-15.6 15.6L1.5-5.8-1.5 5.7-6.1-1.6 6.5-1.5 6.5-4.1 6.5c-3.9 8 6.7-6.8 6.6.6.7 0.2 1.6 0.2 6 .0 2 16.6 19.6 25.5 26.6-10.4 6.3-12.7 9.6 16.6 11.6-1.7 6 6.3-3.2 2 4.0 .6 0 2.1 1.3-2.5 3.6 2.3 3.3-4.7 2.3 3 5.6-6 3.3 3.6-4.2 2.2 4.6-7.9 6 7-7 6 2 .5-2 0 4.2.6 6.2 6-2.2 2.2 6.5 6.4 6.6 6.6-7.8 2.7 2.6 6-5 2.6h-6.7-7-2.2-3.6-5.2-6.2-7-6.2-2.1-2-1-4.6-9-2-15-2-2-25.6-2.2-6-7-10-2.6c-5.5-2.4-9-6-12-3.3-3.6-2.4-2-5.2-2.2-10.6-3.6-30-2-13.5-6.2-3.3-2.6-2.3-2.4-6-10-2-7-4.3-4.3H75.5-15-6.3-29-6.6-29.6-2-6.6-2H-162-2-4.4-2.3.3-5.2-2-2.9-2-54.5-2H51-2-32.7-3-32.8-4.8-6.5-4-5.5-8-12.7-11.8-21.5-5-2.2-1.8-5.6-2.9-9-2-7.9-2-32.6-2.6-5.2-6.8-2.9 6.5-3.7-10-2.2-4.9 4.3-4.6-4.2-4.6.2-4.8z"/>
  <path fill="#243284" d="M119.5 68.2c-.31.3-.57-.2-.82.8l.310.5h3l.3-10.5c.3-11-.2-15-1.8-15-.50-1.21-1.52.2z"/>
</svg>