<?xml version="1.0"?><svg version="1.2" baseProfile="tiny-ps" viewBox="0 0 250 250" xmlns="http://www.w3.org/2000/svg" xmlns:xlink="http://www.w3.org/1999/xlink"><title>Online CE</title><g><g fill="#fcfdfe" transform="matrix(.1 0 0 -.1 0 250)"><path d="M0 1250V0h2500v2500H0V1250z"/></g><g fill="#cedaeb" transform="matrix(.1 0 0 -.1 0 250)"><path d="M448 2487c-21-7-47-20-58-29-11-10-24-18-28-18-12 0-121-111-137-141-8-13-19-35-25-49s-16-36-23-49l-12-24v-282l23-60c23-60 62-143 84-180 26-43 63-100 68-105 3-3 23-27 45-54 55-69 178-188 239-231 16-11 41-30 56-42 15-13 33-23 39-23s11-4 11-8c0-8 13-15 110-68 19-10 36-22 38-26 2-5 7-8 12-8s37-13 72-29c137-63 158-71 178-71 11 0 29-4 40-10 11-5 29-14 40-20 11-5 29-10 41-10 11 0 67-9 122-21l102-21 120 5 120 4 70 18c39 10 86 26 106 36 20 11 44 19 52 19h15l6 16c10 25 2 27-51 14-26-6-85-16-129-21l-82-10-88 10c-175 21-262 38-306 62-10 5-29 9-42 9-14 0-27 4-30 8-3 5-32 17-65 28-34 10-61 22-61 25 0 4-12 10-27 14-15 3-39 15-54 26-15 10-33 19-41 19s-24 9-35 20c-12 10-33 22-47 26-14 3-26 10-26 15s-12 15-27 21c-16 7-38 22-49 33-12 11-42 35-68 54-25 18-62 48-81 65l-35 32v584h1180v-929l8-4c4-2 32-1 62 2l55 6v1130H505l-5-320-5-320-47 71c-51 79-93 163-104 209-4 17-11 35-15 41-5 6-14 46-20 90l-11 79 7 61 6 62 22 53c30 72 79 142 125 176 20 15 43 34 50 41l13 12-18-1c-10 0-35-6-55-12zm738-653c-3-9-6-66-6-128v-112l14-19 14-19 16 13 16 13v100l15-12c8-7 20-31 26-53l11-41-7-53-7-54-26-24c-15-14-34-25-42-25-22 1-54 31-68 63l-12 28v95l20 39 20 39v43c0 49-4 52-31 21-33-39-47-71-57-137l-9-63 12-63 12-64 27-36 28-36 26-10 25-10 27 6 27 6 24 27c13 15 33 42 43 61l18 33v174l-21 47c-12 27-31 57-42 68l-20 20-9-6-10-6v79l-16 6c-24 9-31 7-38-10zm914-18c0-8 4-17 9-20 18-12 81-114 101-167l21-53 9-79 9-79-9-73-9-74-31-64c-41-88-154-217-201-232-11-4-19-10-19-15s-17-18-37-28c-21-10-47-23-58-29-62-34-113-54-211-81l-109-30-120-11-120-10-115 10-115 10-110 25c-116 27-180 48-281 95-34 16-67 29-72 29-6 0-15 6-19 13-4 6-25 20-46 29-20 10-37 22-37 27s-10 13-22 17c-12 3-30 16-40 28l-17 21-1-18v-18l47-49c26-28 51-50 55-50s18-10 31-23c32-30 60-52 77-60 8-4 33-18 55-32 41-25 162-85 172-85 16 0 83-35 83-43 0-5-5-27-12-49l-11-39-31 3-31 3 3 30c2 17 5 32 5 35 1 3-2 7-8 9-11 4-22-14-30-52l-5-27h-60v101l-9-6c-5-3-13-20-16-38-4-17-12-38-17-44l-10-13h-91l6 101 5 102-12-14c-7-8-27-61-45-119s-38-114-44-125-14-33-18-50c-8-34-46-140-60-170-5-11-10-31-11-45l-3-25 739-3 740-2 7 7 7 8-15 90c-8 50-18 99-23 110-4 11-15 59-24 107-9 47-18 92-21 100l-5 13 47 23c27 13 64 31 83 40 31 15 102 59 139 87 22 17 125 121 144 146 28 37 75 140 86 189 6 25 11 80 11 122v77l-11 53c-24 109-97 236-198 341-57 59-71 67-71 43zM1028 694l22-6v-48h-10c-5 0-10-7-10-15v-15h-47l1 45 1 45h10c6 0 20-3 33-6zm115-31c7-12-11-53-23-53h-10v60h14c8 0 17-3 19-7zm607-23v-30h-38l-5 21-5 20 21 9c12 5 23 9 25 9 1 1 2-12 2-29zm-507-10-5-20h-28v40h38l-5-20zm387 0v-20h-10c-5 0-10 2-10 4s-3 11-6 20l-6 16h32v-20zm-290-5v-15h-30v30h30v-15zm95 6 5-10-10-6-10-6v15c0 18 6 21 15 7zm101-18c-10-10-19 5-10 18l8 13 4-13c2-7 1-15-2-18zM710 484v-14h-70v36l35-4 35-4v-14zm400 0v-14h-30v39l15-5c8-4 15-12 15-20zm310 6v-20h-30v14c0 12 8 19 28 25 1 1 2-8 2-19zm-602-2c-3-7-14-14-26-16l-22-3v31h52l-4-12zm92-3v-15h-50v30h50v-15zm100 0v-15h-50v30h50v-15zm200 0v-15h-30v30h30v-15zm110 5c0-12-28-25-36-17-9 9 6 27 22 27 8 0 14-5 14-10zm250-5v-15h-30v30h30v-15zm94 0 5-15h-29v15c0 8 4 15 9 15s11-7 15-15zm124-3 4-14-28 4-27 3-5 13-4 14 28-4 27-3 5-13z"/></g><g fill="#96abd0" transform="matrix(.1 0 0 -.1 0 250)"><path d="m401 2457-55-31-58-59c-32-32-58-63-58-69s-6-19-13-27c-8-9-24-47-37-85l-22-70 5-105 6-106 21-60c26-75 100-225 112-225 4 0 8-5 8-11 0-24 222-279 243-279 3 0 20-14 38-31 32-30 47-41 142-105 76-50 270-154 289-154 5 0 34-11 64-25s61-25 69-25 41-9 72-20l58-20 114-15c145-19 227-19 348 1l96 15 40 20c23 10 47 19 54 19s13 5 13 11v11l-32-7-33-8h-180l-180-1-92 22c-106 25-248 74-315 108-26 13-54 24-62 24s-16 4-18 8c-1 4-23 18-48 31-113 56-268 169-343 248l-27 29 2 290 3 289 598 3 597 2v-943l45 5 45 6 15 12 15 13-2 546-3 546-717 3-718 2v-652l-36 53c-52 75-103 173-132 254l-25 70-1 130-1 130 38 77 37 76 56 56 56 56-18-1c-11 0-43-14-73-32zm785-633c-3-9-6-64-6-124v-108l15-12 15-12 15 12 14 12-3 121c-2 67-4 123-5 125 0 1-10 2-20 2h-19l-6-16zm963-71c50-74 76-140 96-247l16-86-16-81c-9-44-27-103-40-132-34-79-120-183-191-233-124-87-225-132-411-181l-68-18h-410l-60 14c-195 45-346 96-387 128-7 6-24 14-38 18s-34 15-45 25-30 21-42 25c-13 3-23 10-23 15 0 4-16 17-35 29-19 11-35 17-35 13 1-17 58-69 186-169 32-24 237-128 274-139 14-3 49-15 78-26l52-19v-25c0-14-5-34-10-45l-11-19h-49l-1 43-1 42-15-42-15-43h-68v43l-1 42-14-40c-8-22-15-41-15-43s-15-2-32 0l-33 3 3 50 3 50-11-15c-5-8-15-32-20-52l-11-38h-49c-27 0-51 3-53 8-2 4-1 46 2 95l6 87-8-3c-5-1-24-52-43-112-20-61-42-122-50-137-8-14-14-34-14-43s-6-31-14-48c-16-35-56-155-56-169v-8h1480v28c0 15-9 63-19 107s-22 100-26 125-13 67-21 94-14 57-14 67v17l48 18c43 16 65 27 133 66 49 27 106 73 164 132l61 61 31 55 32 55 20 75 21 75v129l-21 75c-19 68-59 158-82 186-4 6-19 26-33 45-33 46-114 130-125 130-5 0 9-26 30-57zM1138 672l12-8-6-32-6-32h-14c-19 0-25 14-18 49 7 33 11 36 32 23zm612-14c0-7 3-23 6-35l6-23h-52l-10 26c-13 32-6 44 26 44h24v-12zm-506-30c-9-30-10-31-28-25l-14 6 5 20 5 21h39l-7-22zm391-3v-20h-30l-3 23-4 24 19-4 18-3v-20zm-287-2-3-18-18-3-17-3v41h41l-3-17zm92-3v-20h-9c-6 0-13 5-16 10-7 12 2 30 16 30h9v-20zm100 0v-20h-20v40h20v-20zM720 506c0-2-3-11-6-20l-6-16h-76l5 20 5 20h39c22 0 39-2 39-4zm110 0c0-2-3-11-6-20l-6-16h-29c-31 0-32 1-23 24l6 16h29c16 0 29-2 29-4zm90-16v-20h-60v40h60v-20zm90 0v-20h-30c-32 0-33 1-24 24l6 16h48v-20zm110 16c0-2-3-11-6-20l-6-16h-19c-21 0-22 1-13 24l6 16h19c10 0 19-2 19-4zm100-16v-20h-25c-27 0-28 1-19 24l6 16h38v-20zm100 0v-20h-40v40h40v-20zm108 3-3-18-23-3c-24-4-25-2-16 22l6 16h39l-3-17zm142-3v-20h-40v40h40v-20zm98-4 4-18-18 4-19 3-3 19-4 18 18-4 19-3 3-19zm120 2 3-18h-61v41l27-3 28-3 3-17zm-538 1240v-33l25-50 24-50 1-30c0-41-27-116-48-132-9-7-29-13-43-13h-26l-21 23-21 22-10 45-10 45 8 42c5 23 16 53 25 67l16 25v61h-26l-26-41-27-41-7-65-6-64 11-55 11-55 22-32c12-18 29-37 38-44l15-12h70l27 23 26 24 21 45 21 46v152l-21 47c-18 39-52 82-66 82-1 0-3-15-3-32z"/></g><g fill="#537bb7" transform="matrix(.1 0 0 -.1 0 250)"><path d="M443 2476c-13-6-23-14-23-18 0-5-7-8-14-8-8 0-43-23-76-51l-62-51-34-54-35-55-19-76-20-76v-46c0-25 9-85 20-133l19-87 45-95 46-96h10c6 0 10-5 10-10 0-45 271-326 371-385 9-5 43-28 75-49 70-46 252-138 309-156 22-7 54-18 70-25 54-24 189-56 280-66l90-11 135 6 135 5 85 31 85 30-50-7c-27-5-122-7-210-7l-160 2-105 27c-124 32-172 46-184 57-6 4-17 8-25 8-22 0-254 116-320 159-29 20-61 41-70 46-24 14-118 92-163 134l-38 35v596h1200v-937l43 7c23 3 48 10 55 14l12 7v1099H510v-650h-9c-5 0-25 24-44 53-111 168-151 278-164 455l-5 72 10 13c5 6 13 30 17 52 3 22 20 65 36 96l30 55 50 52c51 52 53 59 12 38zm747-766v-131l18 3 17 3v250l-17 3-18 3v-131zm965 47c63-102 105-236 105-334 0-77-50-252-78-273-4-3-20-24-36-48-42-61-121-131-220-194-28-18-148-67-211-87-119-38-126-40-270-52l-140-12-130 16c-71 9-150 20-175 25-72 14-205 55-208 64-2 4-10 8-18 8s-22 4-32 9c-9 5-46 24-82 41-36 18-72 39-81 46-8 8-19 14-23 14s-23 12-42 26c-19 15-34 24-34 20 0-10 61-67 121-113 47-36 77-55 174-107 11-6 22-13 25-16 7-7 133-56 197-76l53-16v-33c0-19-3-40-6-49l-6-16h-67l-4 23-4 22-2-22-1-23h-92l6 32 5 33-11-32-11-33h-79l6 48 7 47-16-29c-8-15-15-37-15-47v-19H637l7 85 6 85h-8c-4 0-16-30-26-67-11-38-23-75-27-83-5-8-20-51-34-95-15-44-30-89-35-100-14-34-40-118-40-132v-13h1472l-7 43c-3 23-11 56-16 73s-16 64-24 105c-7 41-18 92-24 114s-11 54-11 72v32l23 6c34 9 142 59 145 68 2 4 9 7 14 7 16 0 114 76 160 124 79 81 118 150 148 260l20 76v43c0 59-36 199-65 258-31 60-74 123-119 173-20 22-36 43-36 47s-7 10-15 13l-16 6 26-43zM1150 656c0-13-3-31-6-40l-6-16h-48l6 28c3 15 7 33 10 40l3 12h41v-24zm600 15c0-5 3-23 6-40l7-31h-61l-7 30-6 30 6 10c3 5 17 10 31 10h24v-9zm-497-18c3-5 1-18-4-30l-8-23h-41v14c0 8 3 21 6 30l6 16h18c11 0 21-3 23-7zm387-12c5-11 10-24 10-30v-11h-50v60h29l11-19zm-297 3 15-5-5-20-5-19h-50l6 16c3 9 6 20 6 25 0 10 12 12 33 3zm105-27 3-17h-41v41l17-3 18-3 3-18zm92 3v-20h-30v13c0 8 3 17 7 20 12 13 23 7 23-13zM720 506c0-8-3-21-6-30l-6-16h-69l-5 15c-4 8-4 22 0 30l5 15h81v-14zm110-4c0-23-19-42-42-42h-19l-5 15c-4 8-4 22 0 30l5 15h61v-18zm93 11c3-5 1-18-4-30l-8-23h-25c-30 0-37 9-29 38l5 22h29c15 0 30-3 32-7zm89 2c3-3 3-17 0-30l-4-25h-24c-28 0-37 13-29 40l6 20h23c12 0 25-2 28-5zm106-22-3-28-19-3c-10-2-23 1-28 6l-10 10 14 21 13 21h36l-3-27zm100 0-3-28-22-3-23-3v14c0 9 3 22 6 31l6 16h39l-3-27zm107 17 6-10-11-20-11-20h-14c-19 0-25 12-18 38l5 22h19c10 0 21-4 24-10zm103-17-3-28-22-3-23-3v14c0 9 3 22 6 31l6 16h39l-3-27zm140-6 3-29-18 4-18 3-3 28-3 29 18-4 18-3 3-28zm102 13 11-20-6-10c-3-6-13-10-20-10h-14l-11 20-11 20 6 10c3 6 13 10 20 10h14l11-20zm114 4c3-9 6-22 6-30v-14h-49l-11 20-11 20 6 10c3 6 17 10 30 10h23l6-16zm-646 1229c-8-10-23-36-33-58l-19-40v-160l26-50 26-50 30-17c17-10 39-18 49-18h19l32 28 31 27 21 53 20 53v128l-9 5c-4 3-11 18-14 34-6 30-43 82-58 82h-9v-70h8c5 0 16-17 25-38l17-39v-100l-17-34c-21-42-41-58-74-59h-26l-20 23-21 22-12 45-12 45 6 44 6 45 20 33c11 19 20 45 20 59v24h-8c-5 0-16-8-24-17z"/></g><g fill="#1d6cb8" transform="matrix(.1 0 0 -.1 0 250)"><path d="M387 2436c-73-51-115-93-153-151l-34-54-15-58-15-57v-161l16-65 15-65 41-85c39-80 67-128 96-158 6-7 12-16 12-20 1-20 168-191 255-261 104-83 127-99 163-115 17-8 32-19 32-24 0-6 11-13 25-16 13-3 46-19 73-35s60-32 73-36c42-12 79-30 79-37 0-5 10-8 23-8 12 0 41-9 62-20 22-11 65-24 95-29s78-17 105-26l50-18h397l7 10c3 5 26 15 51 22 70 21 70 21-10 14-92-9-151-9-255 1l-80 7-100 26c-55 14-109 29-120 33s-36 14-55 21c-106 38-302 135-320 158-3 3-16 12-30 19-48 24-154 107-217 170l-43 43v284c0 156 3 290 6 299l6 16h1198v-940h24c12 0 36 5 52 10l29 10-3 545-2 545H510l-2-327-3-328-48 65c-40 55-80 127-118 215-5 11-18 56-29 99l-20 79v138l16 52c8 29 25 74 37 100l21 49 43 46c61 65 56 70-20 18zm808-618c-3-13-5-70-3-128l3-105h30l3 105c3 110-2 150-18 150-5 0-12-10-15-22zm965-64c0-6 7-17 14-24 8-6 20-28 27-48 6-20 15-42 20-48 5-5 15-39 24-75l15-64v-67c0-159-53-280-180-408-32-32-77-68-99-81-23-12-41-26-41-31 0-4-4-8-10-8-5 0-40-15-77-33-77-37-180-71-268-88l-60-11-175-5-175-5-50 11c-27 5-79 15-115 21-121 22-383 125-440 174-8 7-26 19-40 26l-25 12 37-33c48-44 136-108 168-122 14-7 27-14 30-17 5-6 111-57 148-71 12-5 32-13 45-18 12-5 43-15 70-21l47-13 1-11c2-21-2-71-7-88l-5-18h-69l-1 23v22l-9-22-9-23h-81v22l-14-11-15-12-33 3-33 3 1 23c1 29-14 29-18-1l-3-22H635l3 65c2 36 6 74 9 85l5 20-10-10c-5-5-19-39-30-75-23-72-48-144-61-175-10-23-71-208-71-215 0-3 330-4 732-2l733 2-1 8c-2 16-36 181-49 237-8 33-19 86-25 117l-11 58 6 10c3 5 13 10 20 10 21 0 140 56 199 94 99 63 197 173 241 268l24 53 12 69 12 69-7 73c-4 40-13 94-21 121-19 62-92 186-143 243l-41 45-1-11zM1151 680c13 0 11-34-3-65l-11-25h-50l7 42c4 22 9 45 12 50l6 9 15-5c8-3 19-6 24-6zm608-37c13-44 8-53-29-53h-28l-6 16c-3 9-6 29-6 45v29h59l10-37zm-510 18 13-9-9-28-10-29h-48l3 25c5 50 19 61 51 41zm106-11c3-5 3-21-1-35l-6-25h-48v13c0 6 3 22 6 35l6 22h19c10 0 20-4 24-10zm289-6c3-9 6-25 6-36v-19l-22 3-22 3-7 27c-8 30-3 38 22 38h17l6-16zm-194-9 12-15-6-15-5-15h-51v18c0 18 18 42 31 42 4 0 12-7 19-15zm95-16v-24l-18-3-17-3-6 15-6 16 12 15c7 9 18 14 24 12l11-4v-24zM730 509c0-6-5-19-10-30l-11-19h-38c-45 0-50 3-43 35l4 25h98v-11zm98-16-3-28-32-3-33-3v61h71l-3-27zm102 13c0-8-3-21-6-30l-6-16h-68v23c0 31 7 37 47 37h33v-14zm88-13-3-28-23-3c-13-2-29-1-36 1l-14 5 5 26 5 26h69l-3-27zm104 22c3-3 3-17 0-30l-4-25h-58v18c0 31 43 56 62 37zm108-9c0-8-3-21-6-30l-6-16h-23c-30 0-35 9-24 38l8 22h51v-14zm103 7c3-5 1-18-4-30l-8-23h-51v14c0 8 3 21 6 30l6 16h23c13 0 26-3 28-7zm99 2c3-3 3-17 0-30l-4-25h-24c-28 0-35 10-27 38l5 22h22c13 0 25-2 28-5zm138-2c0-5 3-18 6-30l6-23h-52v60h20c11 0 20-3 20-7zm104-9c3-9 6-22 6-30v-15l-27 3-28 3-3 28-3 27h49l6-16zm116-15v-30l-32 3-33 3-3 28-3 27h71v-31zm-652 1237c-9-12-24-40-32-61l-17-39v-141l19-46 20-46 30-22 30-21h49l36 33 36 32 18 67 17 67-17 72-17 72-25 29-25 30-7-17-6-17 27-52 26-51v-116l-20-40-21-40-24-11-25-11-25 11-24 11-21 40-20 40v120l21 37 20 37-3 27-3 28-17-22z"/></g><g fill="#243284" transform="matrix(.1 0 0 -.1 0 250)"><path d="M1195 1818c-3-13-5-70-3-128l3-105h30l3 105c3 110-2 150-18 150-5 0-12-10-15-22zm965-64c0-6 7-17 14-24 8-6 20-28 27-48 6-20 15-42 20-48 5-5 15-39 24-75l15-64v-67c0-159-53-280-180-408-32-32-77-68-99-81-23-12-41-26-41-31 0-4-4-8-10-8-5 0-40-15-77-33-77-37-180-71-268-88l-60-11-175-5-175-5-50 11c-27 5-79 15-115 21-121 22-383 125-440 174-8 7-26 19-40 26l-25 12 37-33c48-44 136-108 168-122 14-7 27-14 30-17 5-6 111-57 148-71 12-5 32-13 45-18 12-5 43-15 70-21l47-13 1-11c2-21-2-71-7-88l-5-18h-69l-1 23v22l-9-22-9-23h-81v22l-14-11-15-12-33 3-33 3 1 23c1 29-14 29-18-1l-3-22H635l3 65c2 36 6 74 9 85l5 20-10-10c-5-5-19-39-30-75-23-72-48-144-61-175-10-23-71-208-71-215 0-3 330-4 732-2l733 2-1 8c-2 16-36 181-49 237-8 33-19 86-25 117l-11 58 6 10c3 5 13 10 20 10 21 0 140 56 199 94 99 63 197 173 241 268l24 53 12 69 12 69-7 73c-4 40-13 94-21 121-19 62-92 186-143 243l-41 45-1-11zM1151 680c13 0 11-34-3-65l-11-25h-50l7 42c4 22 9 45 12 50l6 9 15-5c8-3 19-6 24-6zm608-37c13-44 8-53-29-53h-28l-6 16c-3 9-6 29-6 45v29h59l10-37zm-510 18 13-9-9-28-10-29h-48l3 25c5 50 19 61 51 41zm106-11c3-5 3-21-1-35l-6-25h-48v13c0 6 3 22 6 35l6 22h19c10 0 20-4 24-10zm289-6c3-9 6-25 6-36v-19l-22 3-22 3-7 27c-8 30-3 38 22 38h17l6-16zm-194-9 12-15-6-15-5-15h-51v18c0 18 18 42 31 42 4 0 12-7 19-15zm95-16v-24l-18-3-17-3-6 15-6 16 12 15c7 9 18 14 24 12l11-4v-24zM730 509c0-6-5-19-10-30l-11-19h-38c-45 0-50 3-43 35l4 25h98v-11zm98-16-3-28-32-3-33-3v61h71l-3-27zm102 13c0-8-3-21-6-30l-6-16h-68v23c0 31 7 37 47 37h33v-14zm88-13-3-28-23-3c-13-2-29-1-36 1l-14 5 5 26 5 26h69l-3-27zm104 22c3-3 3-17 0-30l-4-25h-58v18c0 31 43 56 62 37zm108-9c0-8-3-21-6-30l-6-16h-23c-30 0-35 9-24 38l8 22h51v-14zm103 7c3-5 1-18-4-30l-8-23h-51v14c0 8 3 21 6 30l6 16h23c13 0 26-3 28-7zm99 2c3-3 3-17 0-30l-4-25h-24c-28 0-35 10-27 38l5 22h22c13 0 25-2 28-5zm138-2c0-5 3-18 6-30l6-23h-52v60h20c11 0 20-3 20-7zm104-9c3-9 6-22 6-30v-15l-27 3-28 3-3 28-3 27h49l6-16zm116-15v-30l-32 3-33 3-3 28-3 27h71v-31z"/></g></g></svg>