<?xml version="1.0" encoding="UTF-8"?>
<!-- Created with Inkscape (http://www.inkscape.org/) -->
<svg width="250" height="250" version="1.1" viewBox="0 0 250 250" xmlns="http://www.w3.org/2000/svg">
 <g>
  <path d="m47.013 221.75 0.01338-1.25 6.1264-17 2.0088-8.5h1.838v-2.7371l6.644-20.307 2.5808-2.456-1.1346 4-0.24191 14 0.1502 2 8.7661-0.23644 2.0087-1.2415 0.6521-3.476 0.6521-3.476 0.96127-0.5941 0.96127-0.59409 0.0023 4.809 0.0023 4.809 6.0011 0.21325 1.2472-4.1066 1.2471-4.1066 1 7.8347 5.6582 0.23828 1.0586-1.9781 1.0586-1.9781 1.5526-5.1168 0.1719 9.1588 4.5-0.1588 1.2146-2 1.2146-2 0.0354-2.0308 0.035475-2.0308-6.5-2.5045-15-5.2031-1-1.2309-12-5.9707-12.656-8.6229-7.237-6.4064-4.6069-4.792v-1.9528l1.25 0.94127 1.25 0.94128 12 7.7459 0.66667 1.6165h1.8741l16.459 7.776 9 2.4442 4 1.6291 6 1.2236 14 3.212 39 0.20158 11-2.5744 8-2.1402 4-1.6463 5-1.2959 12-5.9415 5.9064-3.3883 5.0732-4.5h1.4295l5.267-5.267 9.5535-12.233 4.2199-9.6401 2.9818-15.719-1.4446-8.2164-1.4446-8.2164-0.62867-2.1041-0.62868-2.1041-5.8969-11.78-5.1668-6.774 0.91428-0.91427 9.49 9.2238 7.5809 10.262 3.1113 6.4915 3.1113 6.4915 3.0711 11.92v7.0431 7.0431l-3.8644 13.513-6.2815 10.979-10.294 11.264-10.06 7.3921-11 5.9395-9.5 3.5716 0.0239 1.1673 0.0238 1.1673 1.9954 8 2.983 15 2.9322 13 0.0208 2.75 0.02089 2.75h-148zm23.987-19.168v-0.41822l1.214-3.1636h-8.214v4h7zm11 0v-0.41822l1.214-3.1636h-6.214v4h5zm9.8148-1.8318 0.33187-1.75h-6.1466v4.1328l5.4829-0.63284zm9.1852 0.25v-2h-4.7667l-1.046 4h5.8128zm10 0v-2h-3v0.83643l-1.214 3.1636h4.214zm10.813-0.25 0.33354-1.75h-4.1466v0.83643l-1.2815 3.3396 4.7611-0.67599zm10.187 0.17668v-2.0733l-3.477 0.66962-0.66962 3.477h4.1466zm10 1.6551v-0.41822l1.214-3.1636h-4.214v0.83643l-1.214 3.1636h4.214zm14.812-1.3203-0.33481-1.7385-3.477-0.66962v4.1466h4.1466zm10.188 1.3203v-0.41822l-0.60699-1.5818-0.60699-1.5818h-2.786v2.6667l0.66667 0.66666 0.66666 0.66667h2.6667zm11.815-1.3318-0.33187-1.75-5.4829-0.63284v4.1328h6.1466zm-64.505-14.678 0.93439-2.8032-1.3635-0.8427-1.3635-0.84271-1.2585 1.4167-1.2218 5.2031 1.3386 1.3386 1-0.33334 1-0.33333zm9.6906 2.3433v-0.75155l1.214-3.1636h-4.214v4.6667h3zm10.823-1.2596 0.32333-1.6555h-4.1466v3.823l3.5-0.51198zm9.1767-0.21454v-1.441h-1.786l-1.0762 2.8045 1.1412 1.1412 1.721-1.0637zm9.5884-1.1859-0.5884-0.58839-0.62354 0.62354-0.62354 0.62353 1.5566 3.5863 0.43364-1.8283 0.43363-1.8283zm10.076 0.31216-0.6014-1.5672h-3.0628v2.6l2.4 2.4 1.8656-1.8656zm11.736 1.5999-0.1-1.1671-0.3-4h-3.6l-2.2453 2.2453 2.0086 4.4084 4.3367-0.31949zm-30.483-30.581-0.41667-0.41358-16-2.2205-14-4.2229-11-3.9817-21-10.049-0.66667-1.6983-2.3333-0.03058-10-7.0325-7-4.6554-6.7115-6.2815h-1.1331l-14.19-14.5-11.965-16.004-8.392-16.996-4.108-13.711v-18.781l4.2577-12.508 2.7423-3.1575v-1.1318-1.1318l12.828-12.765 6.172-2.5565v-1.5405l5.5-1.3118 4-1.1852-8.7765 7.3531-5.9695 7.4271-6.2272 13 0.06484 12.5 0.06483 12.5 4.5959 13 4.5901 10.215 7.6575 11.537 2.4705 4.2485 0.029484-65.5h144v111.05l-5.1302 1.9505h-6.85l-0.51978-93.5h-119l-0.26475 29.027-0.26475 29.027 8.5295 8.1969 12.9 10.248h2.4335l0.33333 0.80823 0.33333 0.80823 11.207 7.3835 2.793 0.0444 5 3.9111 1.4453 0.0444 11.555 5.207 4 1.7092 15 4.8324 14 2.5925 0.95 0.82948 0.95 0.82963h32.356l7.18-3h3.0015l-0.48949 1.2756-0.4895 1.2756-11.458 4.4645-16 2.984-22.167 3.4e-4zm-30.837-44.816-3.1574-3.2295-3.1808-10.942 0.56139-7.4228 0.56138-7.4228 5.6356-9.0937 2.5-0.82669v7.0523l-4.2169 7.1472 0.37471 7.4203 0.3747 7.4203 4.8162 5.1266 5.1514-0.0636 3.3844-2.5724 3.0865-8.864 0.0146-2.7636 0.01451-2.7636-1.6616-3.4729-3.3384-6.6621-0.36032-4.3379-1.1397 14.794-3.5569 2.2061-1.9124-3-0.01532-11.059-0.01531-11.059 1.3177-1.802 1.3177-1.802 3.3646 3.3647 0.0153 4.1786 0.0153 4.1786 1.8799-2.9732 3.9171 4.2046 4.1724 9.1589v15.219l-2.1377 4.6951-2.1377 4.6951-5.2246 4.4976-7.2627 2e-3z"/>
  <path d="m47.013 221.75 0.01338-1.25 6.1264-17 2.0088-8.5h1.838v-2.7371l6.644-20.307 2.5808-2.456-1.1346 4-0.24191 14 0.1502 2 8.7661-0.23644 2.0087-1.2415 0.6521-3.476 0.6521-3.476 0.96127-0.5941 0.96127-0.59409 0.0023 4.809 0.0023 4.809 6.0011 0.21325 1.2472-4.1066 1.2471-4.1066 1 7.8347 5.6582 0.23828 1.0586-1.9781 1.0586-1.9781 1.5526-5.1168 0.1719 9.1588 4.5-0.1588 1.2146-2 1.2146-2 0.0354-2.0308 0.035475-2.0308-6.5-2.5045-15-5.2031-1-1.2309-12-5.9707-12.656-8.6229-7.237-6.4064-4.6069-4.792v-1.9528l1.25 0.94127 1.25 0.94128 12 7.7459 0.66667 1.6165h1.8741l16.459 7.776 9 2.4442 4 1.6291 6 1.2236 14 3.212 39 0.20158 11-2.5744 8-2.1402 4-1.6463 5-1.2959 12-5.9415 5.9064-3.3883 5.0732-4.5h1.4295l5.267-5.267 9.5535-12.233 4.2199-9.6401 2.9818-15.719-1.4446-8.2164-1.4446-8.2164-0.62867-2.1041-0.62868-2.1041-5.8969-11.78-5.1668-6.774 0.91428-0.91427 9.49 9.2238 7.5809 10.262 3.1113 6.4915 3.1113 6.4915 3.0711 11.92v7.0431 7.0431l-3.8644 13.513-6.2815 10.979-10.294 11.264-10.06 7.3921-11 5.9395-9.5 3.5716 0.0239 1.1673 0.0238 1.1673 1.9954 8 2.983 15 2.9322 13 0.0208 2.75 0.02089 2.75h-148zm23.987-19.168v-0.41822l1.214-3.1636h-8.214v4h7zm11 0v-0.41822l1.214-3.1636h-6.214v4h5zm9.8148-1.8318 0.33187-1.75h-6.1466v4.1328l5.4829-0.63284zm9.1852 0.25v-2h-4.7667l-1.046 4h5.8128zm10 0v-2h-3v0.83643l-1.214 3.1636h4.214zm10.813-0.25 0.33354-1.75h-4.1466v0.83643l-1.2815 3.3396 4.7611-0.67599zm10.187 0.17668v-2.0733l-3.477 0.66962-0.66962 3.477h4.1466zm10 1.6551v-0.41822l1.214-3.1636h-4.214v0.83643l-1.214 3.1636h4.214zm14.812-1.3203-0.33481-1.7385-3.477-0.66962v4.1466h4.1466zm10.188 1.3203v-0.41822l-0.60699-1.5818-0.60699-1.5818h-2.786v2.6667l0.66667 0.66666 0.66666 0.66667h2.6667zm11.815-1.3318-0.33187-1.75-5.4829-0.63284v4.1328h6.1466zm-64.505-14.678 0.93439-2.8032-1.3635-0.8427-1.3635-0.84271-1.2585 1.4167-1.2218 5.2031 1.3386 1.3386 1-0.33334 1-0.33333zm9.6906 2.3433v-0.75155l1.214-3.1636h-4.214v4.6667h3zm10.823-1.2596 0.32333-1.6555h-4.1466v3.823l3.5-0.51198zm9.1767-0.21454v-1.441h-1.786l-1.0762 2.8045 1.1412 1.1412 1.721-1.0637zm9.5884-1.1859-0.5884-0.58839-0.62354 0.62354-0.62354 0.62353 1.5566 3.5863 0.43364-1.8283 0.43363-1.8283zm10.076 0.31216-0.6014-1.5672h-3.0628v2.6l2.4 2.4 1.8656-1.8656zm11.736 1.5999-0.1-1.1671-0.3-4h-3.6l-2.2453 2.2453 2.0086 4.4084 4.3367-0.31949zm-30.483-30.581-0.41667-0.41358-16-2.2205-14-4.2229-11-3.9817-21-10.049-0.66667-1.6983-2.3333-0.03058-10-7.0325-7-4.6554-6.7115-6.2815h-1.1331l-14.19-14.5-11.965-16.004-8.392-16.996-4.108-13.711v-18.781l4.2577-12.508 2.7423-3.1575v-1.1318-1.1318l12.828-12.765 6.172-2.5565v-1.5405l5.5-1.3118 4-1.1852-8.7765 7.3531-5.9695 7.4271-6.2272 13 0.06484 12.5 0.06483 12.5 4.5959 13 4.5901 10.215 7.6575 11.537 2.4705 4.2485 0.029484-65.5h144v111.05l-5.1302 1.9505h-6.85l-0.51978-93.5h-119l-0.26475 29.027-0.26475 29.027 8.5295 8.1969 12.9 10.248h2.4335l0.33333 0.80823 0.33333 0.80823 11.207 7.3835 2.793 0.0444 5 3.9111 1.4453 0.0444 11.555 5.207 4 1.7092 15 4.8324 14 2.5925 0.95 0.82948 0.95 0.82963h32.356l7.18-3h3.0015l-0.48949 1.2756-0.4895 1.2756-11.458 4.4645-16 2.984-22.167 3.4e-4zm-30.837-44.816-3.1574-3.2295-3.1808-10.942 0.56139-7.4228 0.56138-7.4228 5.6356-9.0937 2.5-0.82669v7.0523l-4.2169 7.1472 0.37471 7.4203 0.3747 7.4203 4.8162 5.1266 5.1514-0.0636 3.3844-2.5724 3.0865-8.864 0.0146-2.7636 0.01451-2.7636-1.6616-3.4729-3.3384-6.6621-0.36032-4.3379-1.1397 14.794-3.5569 2.2061-1.9124-3-0.01532-11.059-0.01531-11.059 1.3177-1.802 1.3177-1.802 3.3646 3.3647 0.0153 4.1786 0.0153 4.1786 1.8799-2.9732 3.9171 4.2046 4.1724 9.1589v15.219l-2.1377 4.6951-2.1377 4.6951-5.2246 4.4976-7.2627 2e-3z"/>
 </g>
</svg>
