<?xml version="1.0"?><svg version="1.2" baseProfile="tiny-ps" viewBox="0 0 35 35" xmlns="http://www.w3.org/2000/svg" xmlns:xlink="http://www.w3.org/1999/xlink"><title>Idaho Real Estate Academy</title><g><g fill="#f8fafc" transform="matrix(.1 0 0 -.1 0 35)"><path d="M0 175V0h350v350H0V175z"/></g><g fill="#cdd9eb" transform="matrix(.1 0 0 -.1 0 35)"><path d="m13 343-13-5V221l34-26c19-15 58-35 86-46l51-19 62-2 62-1-20-8c-11-4-42-8-70-8-45 0-69 4-145 25l-25 6 20-16 20-16-10-7C50 92 30 43 37 36c4-3 69-6 145-6h139l-6 34-7 34 21 7 21 6v34h-78l-77 1-60 24-60 25-3 43-3 42h210l3-62 3-63h30v160l-137 3-138 3v-43l-1-43-14 19c-20 26-19 55 2 78 16 18 11 22-14 11zm102-243 20-9-27 2c-16 1-28 5-28 9 0 10 9 9 35-2zm41 142-16-19 6-16c3-8 13-18 22-22l16-6 13 17c17 23 16 28-5 48l-19 16-17-18z"/></g><g fill="#aac3e0" transform="matrix(.1 0 0 -.1 0 35)"><path d="M17 339 0 329V221l31-22c18-12 57-33 88-45l56-24h65l65-1-20-9c-11-5-47-9-81-9l-61-1-48 14-48 15 9-9c5-5 27-16 49-25l40-15-42 3-42 2-10-23c-6-13-11-25-11-27 0-3 63-5 140-5s140 2 140 4c0 3-4 16-9 29l-10 25 25 6 24 6v41l-15-9-16-8-70 7-70 8-54 25-55 25v81h220V148l13 4 12 5 3 76 3 77H40v-84l-15 20c-8 10-15 30-15 43v24l17 19c18 20 16 22-10 7zm144-93-13-15 4-18 3-18 23-3 22-3v49l-14 11-13 11-12-14zm29-36c0-5-4-10-9-10-6 0-13 5-16 10l-6 10h15c9 0 16-4 16-10z"/></g><g fill="#7b99c7" transform="matrix(.1 0 0 -.1 0 35)"><path d="M3 325c-3-9-3-18-1-21 3-3 8 4 11 16 6 23-1 27-10 5zm35-57-4-43-16 35-17 35-1-31v-30l27-27c16-14 51-36 78-48l50-22 75-5 75-5-20-8c-29-11-144-11-184 1-19 5-37 8-39 6-2-3 14-10 37-17 48-14 46-27-4-24l-36 1-10-17c-5-10-9-20-9-23s63-6 140-6h140l-11 27-10 26 13 9c7 4 19 8 26 8h12v42l-13-10-12-10-79 9-79 8-46 23-46 23-3 48-3 47h221V160h20v150H41l-3-42zm127-28c-4-6-5-10-3-11 2 0 11-2 21-4l17-3v8c0 4-7 10-15 13l-14 6-6-9zm10-40-20-9h17c9-1 20 4 23 9 7 11 7 11-20 0z"/></g><g fill="#3574ba" transform="matrix(.1 0 0 -.1 0 35)"><path d="m50 263-1-48-24 28-25 28v-38l23-21c12-11 48-33 79-47l56-26 54-4 53-4-53 9c-29 6-75 21-102 35l-50 25v90h230V160h20v150H50v-47zm118-70c7-3 16-2 19 1 4 3-2 6-13 5l-19-1 13-5zm132-70-35-16h-75c-41 0-67-2-57-4 9-3 17-9 17-15V78l-45 4-44 3-10-22-11-23h272l-7 28-6 28 26 12c14 6 25 16 25 22 0 13-7 12-50-7z"/></g><g fill="#2e3c89" transform="matrix(.1 0 0 -.1 0 35)"><path d="M310 125c-14-7-52-17-85-21l-60-8 40-7 40-7-92 2-92 1-10-22-11-23h270l-6 30-6 30 26 10c14 5 26 14 26 20 0 13-10 12-40-5zM128 63c-10-2-28-2-40 0l-23 4h40l40 1-17-5zm159 1c-3-3-12-4-19-1l-13 5 19 1c11 1 17-2 13-5zm-167 42c0-2 9-6 20-9l20-5v9c0 5-9 9-20 9s-20-2-20-4z"/></g></g></svg>