<svg xmlns="http://www.w3.org/2000/svg" width="250" height="250" baseProfile="tiny-ps" version="1.2"><desc>Online Continuing Education logo</desc><path fill="#FFF" d="M0 0h250v250H0z"/><path d="m34.3 10.1-6.2 5.1-3.4 5.1c-1.9 2.9-4.2 7-5.2 9.2l-1.6 4V46l.1 12.5 1.6 5.5c2 6.9 8.2 19.3 13.7 27.4l4.1 6.1L47.9 108c5.9 5.8 13.5 12.6 17.1 15.2s7.6 5.6 9 6.7c3.7 2.8 32.5 17.1 34.4 17.1 1 0 2.9.6 4.4 1.4s8.3 2.8 15.1 4.5l12.3 3.1 17.7-.1 17.6-.1 5-1.7 5-1.8-18-.6-18-.6-11.5-3c-10.7-2.8-19.7-5.8-23.8-8.1-.9-.5-4.6-2.1-8.2-3.7-3.6-1.5-6.7-3-7-3.3-.3-.4-2.4-1.7-4.7-3-2.4-1.3-4.3-2.7-4.3-3.2 0-.4-.6-.8-1.4-.8-1.6 0-12.7-8.2-21.4-15.7l-6.2-5.5.2-30.1.3-30.2 60.3-.3L182 44v94h1.9c1 0 3.2-.5 5-1.1l3.1-1.1V27l-70.3.2-70.2.3L51 60l-.5 32.5-3.3-4.5c-1.9-2.5-5.1-7.4-7.2-11l-3.9-6.5-3.1-9.3-3.1-9.3-.6-8.2-.5-8.2 1.6-6.8c1.8-7.8 4.1-12.6 9-19L43 5h-1.3c-.6 0-4 2.3-7.4 5.1m85.3 58.1c-.3 1.3-.6 6.9-.6 12.5v10.2l1 .6 1 .6.8-1.8c.4-1 .7-6.4.7-12V68.1l-1.1-1.1-1.1-1.1zm96.9 6.6c.4 1.3 2 5.1 3.7 8.4l2.9 5.9 1.5 7.6c1.8 9.3 1.7 13-.1 21.7l-1.5 6.9-3 6.6-3.1 6.5-8.8 8.7-8.8 8.7-12.4 6.1-12.4 6-7.4 2-7.4 2.1-13.1 1.1-13.1 1.2-10-.6c-23.7-1.5-47.5-8.7-66.4-20.2-7.4-4.5-8.4-4.5-2.9 0 12.9 10.5 28.9 19.3 42.3 23.4 3.8 1.2 7.3 2.7 7.7 3.4 1.1 1.7 1 6.5-.2 8.8l-1.1 1.9h-4.8l-.9-1.6-.9-1.5-1.2 1.5-1.3 1.6h-5.7l-.6-1-.7-1.1-1.3 1.1-1.4 1.1-2.8-.3-2.8-.3-.3-2.3c-.4-2.4-2.2-3.1-2.2-.7v1.4l-1.9 1.1c-1.1.5-3.8 1-6 1h-4l-.3-8.1-.3-8.1-4.2 12.4c-2.3 6.7-5.8 16.9-7.9 22.6L47.7 220l.7.8.7.7 72 .4 71.9.3.6-1.6.7-1.7-3.7-17.7c-2-9.7-3.6-19-3.6-20.5v-2.9l2.3-.6c1.2-.3 6-2.5 10.7-4.8l8.5-4.3 6.8-5.6 6.7-5.7 4.5-6.2c5.6-7.8 7.8-13 9.8-22.9l1.6-7.7-1-6c-.5-3.2-1.8-8.7-2.9-12.2l-1.9-6.3-5.1-8c-2.7-4.4-6.4-9.6-8.1-11.5l-3.1-3.5zM115.3 185.4l-.2 3-1.5 1.4-1.4 1.5-1.7-.7-1.7-.6.7-3.2c1-4.5 1.4-5 3.8-4.6l2.2.3zm59.7-1.5c2.3 4.4.8 7.8-3 6.6l-2-.6-.6-2.5c-.3-1.3-.4-3.1 0-3.9l.5-1.5h4zm-49.6 1c.4.5.2 2.1-.4 3.6l-1 2.6-1.7-.3-1.8-.3-.3-1.8c-.2-1-.1-2.5.2-3.3l.5-1.4h2c1.1 0 2.2.4 2.5.9m38.8 1.6 1.1 2.6-1.1 1.1-1.1 1.1-1.5-.6-1.6-.6v-2.4c0-4.3 2.4-5 4.2-1.2m-28.8-.7c.3.5.2 1.8-.1 3l-.5 2.2H130v-1.4c0-.8.3-2.1.6-3l.6-1.6h1.8c1.1 0 2.1.4 2.4.8m9.1 2.3v2.4l-1.8.3-1.7.3-.6-1.5-.6-1.6 1.2-1.5c.7-.9 1.8-1.4 2.4-1.2l1.1.4zm9.5-.1c0 1-.5 2.2-1.1 2.6l-1.1.6-1-1-1-1 1.2-2.1 1.1-2.2 1 .6c.5.4.9 1.5.9 2.5m-82 11.8c0 1-.5 2.3-1.2 3l-1.2 1.2h-5.7l-.5-1.5c-.4-.8-.4-2.2 0-3l.5-1.5H72zm10.6-.3.6 1.5-1.2 1.5c-.7.8-2.1 1.5-3.2 1.5h-1.9l-.5-1.5c-.4-.8-.4-2.2 0-3l.5-1.5h5.2zm10.4-.8c0 .5-.3 1.8-.6 3l-.6 2.3h-5.9l-.5-1.5-.6-1.5 1.2-1.5 1.2-1.5h2.9c1.6 0 2.9.3 2.9.7m8.5.3c.3.6.3 1.9 0 3l-.6 2H95v-1.8c0-3.4 4.9-5.8 6.5-3.2m10 2v2.5l-2.3.3-2.2.3-.6-1.5-.6-1.6 1.2-1.6 1.3-1.5 1.6.3 1.6.3zm11.1-.8c-.3 1.3-.6 2.6-.6 3 0 .5-1.1.8-2.5.8H117v-1.8c0-2.3 1.9-4.2 4.3-4.2h1.9zm10-.7.6 1.5-1.2 1.5c-.7.8-2.1 1.5-3.1 1.5H127v-1.8c0-3.6 4.5-5.7 5.6-2.7m9.9 1.6v2.4h-4.8l-.4-1.1c-.5-1.5 2.6-4.6 4.1-4.1l1.1.4zM157 200l1.1 2-.6 1c-1.7 2.8-5.4-.3-4.1-3.5.8-2.1 2.3-1.9 3.6.5m10-.5 1.2 1.5-.6 1.5-.5 1.5h-4l-.6-2c-1.2-3.7 2-5.5 4.5-2.5m11 0 1.2 1.5-.6 1.6-.6 1.5-2.7-.3-2.8-.3-.3-2.8-.3-2.7h4.9zM114.3 77.1c-.6.8-2.1 3.6-3.2 6.3l-2.1 4.8v12.9l2.1 5 2.1 4.9 3.3 2c4.2 2.6 5.7 2.5 9.5-.6l3.1-2.6 1.5-3.7c.8-2 1.8-6.3 2.1-9.7l.6-6-1.7-5.5-1.6-5.5-2-1.9c-3.2-2.9-3.4-1.1-.6 5.9l2.6 6.4v9.7l-2 4.2-1.9 4.3-2.5 1.1-2.5 1.2-2.6-1.7c-1.4-.9-3.5-3.1-4.5-4.9l-2-3.2V88.9l2.1-4.9 2.1-4.8-.4-1.8-.3-1.7z"/></svg>