<?xml version="1.0" encoding="UTF-8" standalone="yes"?>
<svg version="1.2" width="250" height="250" viewBox="0 0 250 250" baseProfile="tiny-ps" xmlns="http://www.w3.org/2000/svg">
  <title>bimi-svg-tiny-12-ps</title>
  <defs id="defs1"/>
  <g id="g1">
    <path d="m 48,220.83906 c 0,-1.38348 5.619976,-18.00146 7.605879,-22.49019 0.766766,-1.73312 1.396893,-3.75812 1.400282,-4.5 0.0034,-0.74188 0.591733,-2.47387 1.307433,-3.84887 0.7157,-1.375 2.169808,-5.5375 3.231351,-9.25 1.061542,-3.7125 2.192528,-6.75 2.513301,-6.75 0.320772,0 0.381193,3.84918 0.134267,8.55373 l -0.448956,8.55373 5.878221,-0.30373 c 5.225422,-0.27 5.913709,-0.5536 6.197773,-2.55373 C 76.254309,185.18881 78,185.38896 78,188.5 c 0,2.18362 0.436646,2.5 3.45031,2.5 2.13148,0 3.794588,-0.61519 4.351008,-1.60946 0.827845,-1.47928 0.950653,-1.47928 1.518305,0 1.096252,2.85679 8.626873,1.78234 8.743763,-1.24753 0.04365,-1.13151 0.34494,-0.94254 0.967776,0.60699 0.587118,1.46067 1.749772,2.25 3.314168,2.25 3.15304,0 4.39549,-1.6438 4.79436,-6.34308 0.37788,-4.45199 -1.36167,-6.24523 -7.063423,-7.28138 C 92.429554,176.3494 77.642865,169.599 68,163.64518 61.23241,159.46665 60.677948,159.05417 55.101686,154.04979 53.232613,152.37241 51.320113,151 50.851686,151 50.383259,151 50,150.54345 50,149.98544 c 0,-0.55801 1.6875,0.11055 3.75,1.48568 2.0625,1.37513 5.325,3.32142 7.25,4.32509 1.925,1.00367 4.4,2.34321 5.5,2.97677 6.927312,3.98984 25.264354,10.39525 34.5,12.05137 17.49339,3.1369 20.21002,3.35936 35,2.86612 17.04631,-0.56848 23.9781,-1.52049 34.5,-4.73822 11.15155,-3.41028 26.34329,-11.07893 31.60168,-15.95225 13.37659,-12.39702 16.18392,-16.05776 20.40428,-26.60699 5.35608,-13.38809 4.18133,-31.381908 -2.9274,-44.839713 -4.8,-9.087048 -5.05781,-10.496239 -1.10743,-6.053297 4.77029,5.365093 9.6388,12.717126 13.24398,20 3.05419,6.16983 6.93761,23.35667 5.89274,26.07954 -0.32278,0.84114 -1.05769,4.47658 -1.63314,8.07876 -2.74615,17.19022 -18.3982,35.08244 -38.86303,44.42524 -3.51357,1.60406 -6.94597,2.91646 -7.62755,2.91646 -2.76692,0 -3.29797,2.42808 -1.96839,9 3.16575,15.64781 5.50644,26.78354 6.3994,30.4448 0.52916,2.16964 0.73817,4.30714 0.46447,4.75 C 193.53755,222.55728 48,222.20359 48,220.83906 Z M 71.914811,201.75 C 73.122648,198.55415 72.461539,198 67.440983,198 63.173224,198 63,198.11702 63,201 c 0,2.83733 0.218642,3 4.032224,3 3.26294,0 4.19446,-0.42926 4.882587,-2.25 z m 10.901611,-1 c 0.292846,-2.54509 0.05069,-2.75 -3.25,-2.75 C 76.254006,198 76,198.21818 76,201.06336 c 0,2.85371 0.222423,3.04191 3.25,2.75 2.708083,-0.26111 3.302761,-0.77191 3.566422,-3.06336 z m 9.197233,2.5 c 0.0075,-0.4125 0.284994,-1.7625 0.616631,-3 0.541467,-2.02048 0.244957,-2.25 -2.906666,-2.25 -2.277844,0 -3.722681,0.55517 -4.116631,1.58179 C 84.294905,203.00102 84.949026,204 88.5,204 c 1.925,0 3.506145,-0.3375 3.513655,-0.75 z m 9.379355,-0.83179 c 1.34782,-3.51236 0.69744,-4.55365 -2.64301,-4.23157 -2.708083,0.26111 -3.302761,0.77191 -3.566422,3.06336 -0.28211,2.45179 0.0045,2.75 2.643011,2.75 1.776126,0 3.202131,-0.63247 3.566421,-1.58179 z M 112,201 c 0,-2.22222 -0.46667,-3 -1.8,-3 -2.30387,0 -4.2,1.89613 -4.2,4.2 0,1.33333 0.77778,1.8 3,1.8 2.66667,0 3,-0.33333 3,-3 z m 10.01365,2.25 c 0.008,-0.4125 0.29438,-1.79836 0.63747,-3.07969 0.55985,-2.0908 0.32774,-2.29588 -2.26365,-2 -2.30639,0.26334 -2.95115,0.88311 -3.20389,3.07969 -0.27245,2.36784 0.0402,2.75 2.25,2.75 1.41153,0 2.57256,-0.3375 2.58007,-0.75 z m 10.80277,-2.5 c 0.26929,-2.34034 -0.0499,-2.75 -2.14301,-2.75 -2.39203,0 -3.67341,1.62141 -3.67341,4.64821 0,1.02964 0.84278,1.38766 2.75,1.16821 2.15997,-0.24853 2.81789,-0.90645 3.06642,-3.06642 z M 143,201 c 0,-2.31543 -0.44835,-3 -1.96482,-3 -2.11701,0 -4.5139,3.4164 -3.52241,5.02067 0.3329,0.53863 1.70371,0.97933 3.04625,0.97933 2.04553,0 2.44098,-0.48601 2.44098,-3 z m 14.39275,2.17354 C 158.43048,201.49445 156.73553,198 154.88337,198 153.4574,198 153,198.72859 153,201 c 0,2.30293 0.451,3 1.94098,3 1.06754,0 2.17084,-0.37191 2.45177,-0.82646 z M 168,202.58179 C 168,199.64159 166.70767,198 164.39301,198 c -2.40907,0 -2.95921,1.36093 -1.78602,4.41821 0.76038,1.98153 5.39301,2.12204 5.39301,0.16358 z M 178.81642,201.25 c -0.26366,-2.29145 -0.85834,-2.80225 -3.56642,-3.06336 -2.84981,-0.27477 -3.25,-0.0182 -3.25,2.08333 0,3.10524 0.70906,3.73003 4.23309,3.73003 2.57341,0 2.86414,-0.30949 2.58333,-2.75 z M 114.90217,187.85078 C 115.50598,186.1187 116,184.14619 116,183.46741 c 0,-1.41785 -3.30608,-2.52904 -4.74506,-1.59484 -1.22598,0.79592 -2.50414,7.5449 -1.6001,8.44894 1.68088,1.68088 4.21623,0.4871 5.24733,-2.47073 z m 10.12258,0.58412 c 1.38129,-3.63305 1.25274,-4.12907 -1.23897,-4.78067 -2.58936,-0.67713 -3.74898,0.73631 -3.77047,4.59577 -0.0207,3.71234 3.61726,3.84662 5.00944,0.1849 z m 9.9889,1.8151 c 0.008,-0.4125 0.26943,-1.70298 0.58205,-2.86774 0.44987,-1.67616 0.046,-2.21761 -1.93711,-2.5967 -1.9234,-0.36768 -2.63628,0.008 -3.06839,1.61774 -0.9999,3.7245 -0.63752,4.5967 1.9098,4.5967 1.375,0 2.50614,-0.3375 2.51365,-0.75 z M 145,188.55902 c 0,-3.14783 -1.77032,-4.21727 -3.73271,-2.25489 C 139.31379,188.25764 140.30735,191 142.96862,191 144.45566,191 145,190.3459 145,188.55902 Z m 9.5,-0.48938 c 0,-3.1191 -2.05269,-3.77396 -3.47854,-1.10974 -1.32859,2.48249 -0.47664,4.27441 1.82178,3.83177 0.99419,-0.19146 1.65676,-1.28006 1.65676,-2.72203 z m 9.97158,1.97635 C 165.61999,188.18781 163.83294,184 161.89159,184 160.48122,184 160,184.72079 160,186.83333 c 0,1.55834 0.3,3.13334 0.66667,3.5 0.97568,0.97569 3.12461,0.8134 3.80491,-0.28734 z M 175.98635,188.75 C 175.95618,183.77884 174.87491,182 171.88337,182 169.45474,182 169,182.40465 169,184.56574 169,188.482 170.77481,191 173.53518,191 c 1.89349,0 2.46165,-0.52154 2.45117,-2.25 z M 135.45,155.14743 c -1.02978,-0.92417 -7.6289,-2.67313 -13.83565,-3.66685 -2.13711,-0.34216 -5.50544,-1.49026 -7.48519,-2.55134 C 112.14941,147.86816 109.28545,147 107.76481,147 106.24416,147 105,146.65985 105,146.24411 c 0,-0.41574 -1.4625,-1.34321 -3.25,-2.06105 -3.429447,-1.37723 -19.168586,-9.17446 -24.243453,-12.01031 -1.646398,-0.92001 -3.724181,-2.46025 -4.617295,-3.42275 -0.893114,-0.9625 -2.03588,-1.75 -2.539481,-1.75 -0.980929,0 -4.979313,-2.94298 -9.510309,-7 -1.535642,-1.375 -4.663977,-4.075 -6.951856,-6 -2.287879,-1.925 -5.641442,-5.075 -7.452362,-7 C 39.444069,99.56841 35.027658,94.472417 35.014116,93.821429 35.006352,93.448214 34.4375,92.53607 33.75,91.794441 31.150171,88.98992 28.297294,84.254655 24.836725,77 18.362882,63.428389 17.498922,59.770281 17.515244,46 17.529332,34.115282 17.682968,33.174892 20.636504,26.895145 24.136094,19.454386 29.043193,13.578435 35.867031,8.6575187 42.78721,3.6671266 44.88748,3.2251863 41.081146,7.5603606 36.094023,13.24038 33.461013,17.972357 31.071186,25.549996 27.242801,37.689001 29.109971,54.464638 35.974512,69.60406 39.41354,77.188674 49.010015,91.980022 50.5,91.99265 c 0.64617,0.0055 1,-11.402729 1,-32.242087 V 27.5 L 121.75,27.243247 192,26.986494 v 54.346238 54.346238 l -2.54705,1.16051 c -1.40088,0.63829 -3.65088,1.16052 -5,1.16052 H 182 V 90.992194 43.984387 L 121.75,44.242194 61.5,44.5 l -0.264404,30.076215 -0.264404,30.076215 3.758122,3.41981 C 70.842594,113.6352 79.862203,121 80.561838,121 c 0.357197,0 1.986437,1.125 3.620531,2.5 1.634095,1.375 3.611555,2.5 4.394356,2.5 C 89.359526,126 90,126.44769 90,126.99488 c 0,0.54718 2.025,1.94674 4.5,3.11012 2.475,1.16339 4.5,2.5157 4.5,3.00513 0,0.48943 0.5625,0.89175 1.25,0.89406 0.6875,0.002 3.46377,1.1273 6.16948,2.5 2.70571,1.37269 5.51821,2.49581 6.25,2.49581 0.73179,0 1.33052,0.37875 1.33052,0.84167 0,0.46292 2.7215,1.66568 6.04777,2.67279 3.32628,1.00712 6.27784,2.20337 6.55902,2.65833 0.28118,0.45497 1.39888,0.82721 2.48377,0.82721 1.08489,0 4.77084,0.94914 8.19099,2.1092 10.52186,3.56884 32.73597,5.24002 47.21845,3.55228 l 6,-0.69922 -5.49124,1.56011 c -3.02019,0.85807 -5.92269,1.99156 -6.45,2.51887 -1.19329,1.19329 -41.78602,1.29328 -43.10876,0.10619 z M 116.22507,112.9958 c -1.8012,-1.09819 -3.7139,-3.23401 -4.25043,-4.74626 -0.53653,-1.51225 -1.42531,-3.53093 -1.97507,-4.48597 -1.25708,-2.18377 -1.32118,-17.446771 -0.0765,-18.216021 0.50769,-0.313766 1.20819,-1.868662 1.55668,-3.455324 0.34849,-1.586662 1.50811,-3.676246 2.57694,-4.64352 C 115.93421,75.749567 116,75.778883 116,78.314596 c 0,1.443514 -0.97105,4.325759 -2.1579,6.404988 -3.19685,5.600551 -2.96002,14.549261 0.53143,20.080066 2.77391,4.39416 6.71228,6.25515 9.53125,4.50378 6.50629,-4.04224 8.32121,-17.213527 3.59522,-26.091279 -3.53596,-6.642274 -3.07173,-9.711364 0.81868,-5.412505 6.89357,7.61731 6.05927,27.613324 -1.43114,34.300754 -3.8234,3.41353 -6.20441,3.61348 -10.66247,0.8954 z m 3.46243,-21.641633 c -1.19027,-1.190272 -0.7991,-24.167158 0.4243,-24.923265 2.18567,-1.350815 2.88816,2.238091 2.64004,13.487502 -0.23343,10.583729 -1.01176,13.488347 -3.06434,11.435763 z" id="path1" fill="#000000"/>
  </g>
</svg>