<svg version="1.2" baseProfile="tiny-ps" width="250" height="250" viewBox="0 0 250 250 xmlns="http://www.w3.org/2000/svg">
  <title>bimi-svg-tiny-12-ps</title>
  <desc>Online Continuing Education logo</desc>
  <g>
    <g transform="matrix(.1 0 0 -.1 0 250)">
      <path d="m343 2399-62-51-34-51c-19-29-42-70-52-92l-16-40v-125l1-125 16-55c20-69 82-193 137-274l41-61 105-105c59-58 135-126 171-152s76-56 90-67c37-28 325-171 344-171 10 0 29-6 44-14s83-28 151-45l123-31 177 1 176 1 50 17 50 18-180 6-180 6-115 30c-107 28-197 58-238 81-9 5-46 21-82 37-36 15-67 30-70 33-3 4-24 17-47 30-24 13-43 27-43 32 0 4-6 8-14 8-16 0-127 82-214 157l-62 55 2 301 3 302 603 3 602 2v-940h19c10 0 32 5 50 11l31 11v1088l-703-2-702-3-5-325-5-325-33 45c-19 25-51 74-72 110l-39 65-31 93-31 93-6 82-5 82 16 68c18 78 41 126 90 190l36 47h-13c-6 0-40-23-74-51zm853-581c-3-13-6-69-6-125v-102l10-6 10-6 8 18c4 10 7 64 7 120v102l-11 11-11 11-7-23zm969-66c4-13 20-51 37-84l29-59 15-76c18-93 17-130-1-217l-15-69-30-66-31-65-88-87-88-87-124-61-124-60-74-20-74-21-131-11-131-12-100 6c-237 15-475 87-664 202-74 45-84 45-29 0 129-105 289-193 423-234 38-12 73-27 77-34 11-17 10-65-2-88l-11-19h-48l-9 16-9 15-12-15-13-16h-57l-6 10-7 11-13-11-14-11-28 3-28 3-3 23c-4 24-22 31-22 7v-14l-19-11c-11-5-38-10-60-10h-40l-3 81-3 81-42-124c-23-67-58-169-79-226l-37-102 7-8 7-7 720-4 719-3 6 16 7 17-37 177c-20 97-36 190-36 205v29l23 6c12 3 60 25 107 48l85 43 68 56 67 57 45 62c56 78 78 130 98 229l16 77-10 60c-5 32-18 87-29 122l-19 63-51 80c-27 44-64 96-81 115l-31 35 7-23zM1153 646l-2-30-15-14-14-15-17 7-17 6 7 32c10 45 14 50 38 46l22-3-2-29zm597 15c23-44 8-78-30-66l-20 6-6 25c-3 13-4 31 0 39l5 15h40l11-19zm-496-10c4-5 2-21-4-36l-10-26-17 3-18 3-3 18c-2 10-1 25 2 33l5 14h20c11 0 22-4 25-9zm388-16 11-26-11-11-11-11-15 6-16 6v24c0 43 24 50 42 12zm-288 7c3-5 2-18-1-30l-5-22h-48v14c0 8 3 21 6 30l6 16h18c11 0 21-4 24-8zm91-23v-24l-18-3-17-3-6 15-6 16 12 15c7 9 18 14 24 12l11-4v-24zm95 1c0-10-5-22-11-26l-11-6-10 10-10 10 12 21 11 22 10-6c5-4 9-15 9-25zM720 502c0-10-5-23-12-30l-12-12h-57l-5 15c-4 8-4 22 0 30l5 15h81v-18zm106 3 6-15-12-15c-7-8-21-15-32-15h-19l-5 15c-4 8-4 22 0 30l5 15h52l5-15zm104 8c0-5-3-18-6-30l-6-23h-59l-5 15-6 15 12 15 12 15h29c16 0 29-3 29-7zm85-3c3-6 3-19 0-30l-6-20h-59v18c0 34 49 58 65 32zm100-20v-25l-23-3-22-3-6 15-6 16 12 16 13 15 16-3 16-3v-25zm111 8c-3-13-6-26-6-30 0-5-11-8-25-8h-25v18c0 23 19 42 43 42h19l-6-22zm100 7 6-15-12-15c-7-8-21-15-31-15h-19v18c0 36 45 57 56 27zm99-16v-24h-48l-4 11c-5 15 26 46 41 41l11-4v-24zm145 11 11-20-6-10c-17-28-54 3-41 35 8 21 23 19 36-5zm100 5 12-15-6-15-5-15h-40l-6 20c-12 37 20 55 45 25zm110 0 12-15-6-16-6-15-27 3-28 3-3 28-3 27h49l12-15zm-637 1224c-6-8-21-36-32-63l-21-48v-129l21-50 21-49 33-20c42-26 57-25 95 6l31 26 15 37c8 20 18 63 21 97l6 60-17 55-16 55-20 19c-32 29-34 11-6-59l26-64v-97l-20-42-19-43-25-11-25-12-26 17c-14 9-35 31-45 49l-20 32v116l21 49 21 48-4 18-3 17-12-14z"/>
    </g>
  </g>
</svg>