<svg xmlns="http://www.w3.org/2000/svg" baseProfile="tiny" version="1.2" viewBox="0 0 250 250"><path fill="#fcfdfe" d="M0 125v125h250V0H0v125z"/><path fill="#cedaeb" d="M44.8 1.3c-2.1.7-4.7 2-5.8 2.9-1.1 1-2.4 1.8-2.8 1.8C35 6 24.1 17.1 22.5 20.1c-.8 1.3-1.9 3.5-2.5 4.9s-1.6 3.6-2.3 4.9l-1.2 2.4v28.2l2.3 6c2.3 6 6.2 14.3 8.4 18 2.6 4.3 6.3 10 6.8 10.5.3.3 2.3 2.7 4.5 5.4 5.5 6.9 17.8 18.8 23.9 23.1 1.6 1.1 4.1 3 5.6 4.2 1.5 1.3 3.3 2.3 3.9 2.3s1.1.4 1.1.8c0 .8 1.3 1.5 11 6.8 1.9 1 3.6 2.2 3.8 2.6.2.5.7.8 1.2.8s3.7 1.3 7.2 2.9c13.7 6.3 15.8 7.1 17.8 7.1 1.1 0 2.9.4 4 1 1.1.5 2.9 1.4 4 2 1.1.5 2.9 1 4.1 1 1.1 0 6.7.9 12.2 2.1l10.2 2.1 12-.5 12-.4 7-1.8c3.9-1 8.6-2.6 10.6-3.6 2-1.1 4.4-1.9 5.2-1.9h1.5l.6-1.6c1-2.5.2-2.7-5.1-1.4-2.6.6-8.5 1.6-12.9 2.1l-8.2 1-8.8-1c-17.5-2.1-26.2-3.8-30.6-6.2-1-.5-2.9-.9-4.2-.9-1.4 0-2.7-.4-3-.8-.3-.5-3.2-1.7-6.5-2.8-3.4-1-6.1-2.2-6.1-2.5 0-.4-1.2-1-2.7-1.4-1.5-.3-3.9-1.5-5.4-2.6-1.5-1-3.3-1.9-4.1-1.9s-2.4-.9-3.5-2c-1.2-1-3.3-2.2-4.7-2.6-1.4-.3-2.6-1-2.6-1.5s-1.2-1.5-2.7-2.1c-1.6-.7-3.8-2.2-4.9-3.3-1.2-1.1-4.2-3.5-6.8-5.4-2.5-1.8-6.2-4.8-8.1-6.5l-3.5-3.2V46h118v92.9l.8.4c.4.2 3.2.1 6.2-.2l5.5-.6v-113h-143l-.5 32-.5 32-4.7-7.1c-5.1-7.9-9.3-16.3-10.4-20.9-.4-1.7-1.1-3.5-1.5-4.1-.5-.6-1.4-4.6-2-9l-1.1-7.9.7-6.1.6-6.2 2.2-5.3c3-7.2 7.9-14.2 12.5-17.6 2-1.5 4.3-3.4 5-4.1L52.1 0l-1.8.1c-1 0-3.5.6-5.5 1.2zm73.8 65.3c-.3.9-.6 6.6-.6 12.8v11.2l1.4 1.9 1.4 1.9 1.6-1.3 1.6-1.3v-10l1.5 1.2c.8.7 2 3.1 2.6 5.3l1.1 4.1-.7 5.3-.7 5.4-2.6 2.4c-1.5 1.4-3.4 2.5-4.2 2.5-2.2-.1-5.4-3.1-6.8-6.3l-1.2-2.8v-9.5l2-3.9 2-3.9v-4.3c0-4.9-.4-5.2-3.1-2.1-3.3 3.9-4.7 7.1-5.7 13.7l-.9 6.3 1.2 6.3 1.2 6.4 2.7 3.6 2.8 3.6 2.6 1 2.5 1 2.7-.6 2.7-.6 2.4-2.7c1.3-1.5 3.3-4.2 4.3-6.1l1.8-3.3V86.4l-2.1-4.7c-1.2-2.7-3.1-5.7-4.2-6.8l-2-2-.9.6-1 .6v-7.9l-1.6-.6c-2.4-.9-3.1-.7-3.8 1zm91.4 1.8c0 .8.4 1.7.9 2 1.8 1.2 8.1 11.4 10.1 16.7l2.1 5.3.9 7.9.9 7.9-.9 7.3-.9 7.4-3.1 6.4c-4.1 8.8-15.4 21.7-20.1 23.2-1.1.4-1.9 1-1.9 1.5s-1.7 1.8-3.7 2.8c-2.1 1-4.7 2.3-5.8 2.9-6.2 3.4-11.3 5.4-21.1 8.1l-10.9 3-12 1.1-12 1-11.5-1-11.5-1-11-2.5c-11.6-2.7-18-4.8-28.1-9.5-3.4-1.6-6.7-2.9-7.2-2.9-.6 0-1.5-.6-1.9-1.3-.4-.6-2.5-2-4.6-2.9-2-1-3.7-2.2-3.7-2.7s-1-1.3-2.2-1.7c-1.2-.3-3-1.6-4-2.8l-1.7-2.1-.1 1.8v1.8l4.7 4.9c2.6 2.8 5.1 5 5.5 5s1.8 1 3.1 2.3c3.2 3 6 5.2 7.7 6 .8.4 3.3 1.8 5.5 3.2 4.1 2.5 16.2 8.5 17.2 8.5 1.6 0 8.3 3.5 8.3 4.3 0 .5-.5 2.7-1.2 4.9l-1.1 3.9-3.1-.3-3.1-.3.3-3c.2-1.7.5-3.2.5-3.5.1-.3-.2-.7-.8-.9-1.1-.4-2.2 1.4-3 5.2L85 189h-6v-10.1l-.9.6c-.5.3-1.3 2-1.6 3.8-.4 1.7-1.2 3.8-1.7 4.4l-1 1.3h-9.1l.6-10.1.5-10.2-1.2 1.4c-.7.8-2.7 6.1-4.5 11.9s-3.8 11.4-4.4 12.5-1.4 3.3-1.8 5c-.8 3.4-4.6 14-6 17-.5 1.1-1 3.1-1.1 4.5l-.3 2.5 73.9.3 74 .2.7-.7.7-.8-1.5-9c-.8-5-1.8-9.9-2.3-11-.4-1.1-1.5-5.9-2.4-10.7-.9-4.7-1.8-9.2-2.1-10l-.5-1.3 4.7-2.3c2.7-1.3 6.4-3.1 8.3-4 3.1-1.5 10.2-5.9 13.9-8.7 2.2-1.7 12.5-12.1 14.4-14.6 2.8-3.7 7.5-14 8.6-18.9.6-2.5 1.1-8 1.1-12.2v-7.7l-1.1-5.3c-2.4-10.9-9.7-23.6-19.8-34.1-5.7-5.9-7.1-6.7-7.1-4.3zM102.8 180.6l2.2.6v4.8h-1c-.5 0-1 .7-1 1.5v1.5h-4.7l.1-4.5.1-4.5h1c.6 0 2 .3 3.3.6zm11.5 3.1c.7 1.2-1.1 5.3-2.3 5.3h-1v-6h1.4c.8 0 1.7.3 1.9.7zM175 186v3h-3.8l-.5-2.1-.5-2 2.1-.9c1.2-.5 2.3-.9 2.5-.9.1-.1.2 1.2.2 2.9zm-50.7 1-.5 2H121v-4h3.8l-.5 2zm38.7 0v2h-1c-.5 0-1-.2-1-.4s-.3-1.1-.6-2l-.6-1.6h3.2v2zm-29 .5v1.5h-3v-3h3v1.5zm9.5-.6.5 1-1 .6-1 .6v-1.5c0-1.8.6-2.1 1.5-.7zm10.1 1.8c-1 1-1.9-.5-1-1.8l.8-1.3.4 1.3c.2.7.1 1.5-.2 1.8zM71 201.6v1.4h-7v-3.6l3.5.4 3.5.4v1.4zm40 0v1.4h-3v-3.9l1.5.5c.8.4 1.5 1.2 1.5 2zm31-.6v2h-3v-1.4c0-1.2.8-1.9 2.8-2.5.1-.1.2.8.2 1.9zm-60.2.2c-.3.7-1.4 1.4-2.6 1.6l-2.2.3V200h5.2l-.4 1.2zm9.2.3v1.5h-5v-3h5v1.5zm10 0v1.5h-5v-3h5v1.5zm20 0v1.5h-3v-3h3v1.5zm11-.5c0 1.2-2.8 2.5-3.6 1.7-.9-.9.6-2.7 2.2-2.7.8 0 1.4.5 1.4 1zm25 .5v1.5h-3v-3h3v1.5zm9.4 0 .5 1.5H164v-1.5c0-.8.4-1.5.9-1.5s1.1.7 1.5 1.5zm12.4.3.4 1.4-2.8-.4-2.7-.3-.5-1.3-.4-1.4 2.8.4 2.7.3.5 1.3z"/><path fill="#96abd0" d="m40.1 4.3-5.5 3.1-5.8 5.9c-3.2 3.2-5.8 6.3-5.8 6.9s-.6 1.9-1.3 2.7c-.8.9-2.4 4.7-3.7 8.5l-2.2 7 .5 10.5.6 10.6 2.1 6C21.6 73 29 88 30.2 88c.4 0 .8.5.8 1.1 0 2.4 22.2 27.9 24.3 27.9.3 0 2 1.4 3.8 3.1 3.2 3 4.7 4.1 14.2 10.5 7.6 5 27 15.4 28.9 15.4.5 0 3.4 1.1 6.4 2.5s6.1 2.5 6.9 2.5 4.1.9 7.2 2l5.8 2 11.4 1.5c14.5 1.9 22.7 1.9 34.8-.1l9.6-1.5 4-2c2.3-1 4.7-1.9 5.4-1.9s1.3-.5 1.3-1.1v-1.1l-3.2.7-3.3.8h-18l-18 .1-9.2-2.2c-10.6-2.5-24.8-7.4-31.5-10.8-2.6-1.3-5.4-2.4-6.2-2.4s-1.6-.4-1.8-.8c-.1-.4-2.3-1.8-4.8-3.1-11.3-5.6-26.8-16.9-34.3-24.8l-2.7-2.9.2-29 .3-28.9 59.8-.3L182 45v94.3l4.5-.5 4.5-.6 1.5-1.2 1.5-1.3-.2-54.6-.3-54.6-71.7-.3L50 26v65.2l-3.6-5.3c-5.2-7.5-10.3-17.3-13.2-25.4l-2.5-7-.1-13-.1-13 3.8-7.7 3.7-7.6 5.6-5.6L49.2 1l-1.8.1c-1.1 0-4.3 1.4-7.3 3.2zm78.5 63.3c-.3.9-.6 6.4-.6 12.4v10.8l1.5 1.2 1.5 1.2 1.5-1.2 1.4-1.2-.3-12.1c-.2-6.7-.4-12.3-.5-12.5 0-.1-1-.2-2-.2h-1.9l-.6 1.6zm96.3 7.1c5 7.4 7.6 14 9.6 24.7l1.6 8.6-1.6 8.1c-.9 4.4-2.7 10.3-4 13.2-3.4 7.9-12 18.3-19.1 23.3-12.4 8.7-22.5 13.2-41.1 18.1l-6.8 1.8h-41l-6-1.4c-19.5-4.5-34.6-9.6-38.7-12.8-.7-.6-2.4-1.4-3.8-1.8s-3.4-1.5-4.5-2.5-3-2.1-4.2-2.5c-1.3-.3-2.3-1-2.3-1.5 0-.4-1.6-1.7-3.5-2.9-1.9-1.1-3.5-1.7-3.5-1.3.1 1.7 5.8 6.9 18.6 16.9 3.2 2.4 23.7 12.8 27.4 13.9 1.4.3 4.9 1.5 7.8 2.6l5.2 1.9v2.5c0 1.4-.5 3.4-1 4.5l-1.1 1.9H98l-.1-4.3-.1-4.2-1.5 4.2-1.5 4.3H88v-4.3l-.1-4.2-1.4 4c-.8 2.2-1.5 4.1-1.5 4.3s-1.5.2-3.2 0l-3.3-.3.3-5 .3-5L78 181c-.5.8-1.5 3.2-2 5.2l-1.1 3.8H70c-2.7 0-5.1-.3-5.3-.8-.2-.4-.1-4.6.2-9.5l.6-8.7-.8.3c-.5.1-2.4 5.2-4.3 11.2-2 6.1-4.2 12.2-5 13.7-.8 1.4-1.4 3.4-1.4 4.3s-.6 3.1-1.4 4.8c-1.6 3.5-5.6 15.5-5.6 16.9v.8h148v-2.8c0-1.5-.9-6.3-1.9-10.7s-2.2-10-2.6-12.5-1.3-6.7-2.1-9.4-1.4-5.7-1.4-6.7v-1.7l4.8-1.8c4.3-1.6 6.5-2.7 13.3-6.6 4.9-2.7 10.6-7.3 16.4-13.2l6.1-6.1 3.1-5.5 3.2-5.5 2-7.5 2.1-7.5v-12.9l-2.1-7.5c-1.9-6.8-5.9-15.8-8.2-18.6-.4-.6-1.9-2.6-3.3-4.5-3.3-4.6-11.4-13-12.5-13-.5 0 .9 2.6 3 5.7zM113.8 182.8l1.2.8-.6 3.2-.6 3.2h-1.4c-1.9 0-2.5-1.4-1.8-4.9.7-3.3 1.1-3.6 3.2-2.3zm61.2 1.4c0 .7.3 2.3.6 3.5l.6 2.3H171l-1-2.6c-1.3-3.2-.6-4.4 2.6-4.4h2.4v1.2zm-50.6 3c-.9 3-1 3.1-2.8 2.5l-1.4-.6.5-2 .5-2.1h3.9l-.7 2.2zm39.1.3v2h-3l-.3-2.3-.4-2.4 1.9.4 1.8.3v2zm-28.7.2-.3 1.8-1.8.3-1.7.3V186h4.1l-.3 1.7zm9.2.3v2h-.9c-.6 0-1.3-.5-1.6-1-.7-1.2.2-3 1.6-3h.9v2zm10 0v2h-2v-4h2v2zm-82 11.4c0 .2-.3 1.1-.6 2l-.6 1.6h-7.6l.5-2 .5-2h3.9c2.2 0 3.9.2 3.9.4zm11 0c0 .2-.3 1.1-.6 2l-.6 1.6h-2.9c-3.1 0-3.2-.1-2.3-2.4l.6-1.6h2.9c1.6 0 2.9.2 2.9.4zm9 1.6v2h-6v-4h6v2zm9 0v2h-3c-3.2 0-3.3-.1-2.4-2.4l.6-1.6h4.8v2zm11-1.6c0 .2-.3 1.1-.6 2l-.6 1.6h-1.9c-2.1 0-2.2-.1-1.3-2.4l.6-1.6h1.9c1 0 1.9.2 1.9.4zm10 1.6v2h-2.5c-2.7 0-2.8-.1-1.9-2.4l.6-1.6h3.8v2zm10 0v2h-4v-4h4v2zm10.8-.3-.3 1.8-2.3.3c-2.4.4-2.5.2-1.6-2.2l.6-1.6h3.9l-.3 1.7zm14.2.3v2h-4v-4h4v2zm9.8.4.4 1.8-1.8-.4-1.9-.3-.3-1.9-.4-1.8 1.8.4 1.9.3.3 1.9zm12-.2.3 1.8H173v-4.1l2.7.3 2.8.3.3 1.7zM125 77.2v3.3l2.5 5 2.4 5 .1 3c0 4.1-2.7 11.6-4.8 13.2-.9.7-2.9 1.3-4.3 1.3h-2.6l-2.1-2.3-2.1-2.2-1-4.5-1-4.5.8-4.2c.5-2.3 1.6-5.3 2.5-6.7l1.6-2.5V75h-2.6l-2.6 4.1-2.7 4.1-.7 6.5-.6 6.4 1.1 5.5 1.1 5.5 2.2 3.2c1.2 1.8 2.9 3.7 3.8 4.4l1.5 1.2h7l2.7-2.3 2.6-2.4 2.1-4.5 2.1-4.6V86.9l-2.1-4.7c-1.8-3.9-5.2-8.2-6.6-8.2-.1 0-.3 1.5-.3 3.2z"/><path fill="#537bb7" d="M44.3 2.4C43 3 42 3.8 42 4.2c0 .5-.7.8-1.4.8-.8 0-4.3 2.3-7.6 5.1l-6.2 5.1-3.4 5.4-3.5 5.5-1.9 7.6-2 7.6v4.6c0 2.5.9 8.5 2 13.3l1.9 8.7 4.5 9.5L29 87h1c.6 0 1 .5 1 1 0 4.5 27.1 32.6 37.1 38.5.9.5 4.3 2.8 7.5 4.9 7 4.6 25.2 13.8 30.9 15.6 2.2.7 5.4 1.8 7 2.5 5.4 2.4 18.9 5.6 28 6.6l9 1.1 13.5-.6 13.5-.5 8.5-3.1 8.5-3-5 .7c-2.7.5-12.2.7-21 .7l-16-.2-10.5-2.7c-12.4-3.2-17.2-4.6-18.4-5.7-.6-.4-1.7-.8-2.5-.8-2.2 0-25.4-11.6-32-15.9-2.9-2-6.1-4.1-7-4.6-2.4-1.4-11.8-9.2-16.3-13.4l-3.8-3.5V45h120v93.7l4.3-.7c2.3-.3 4.8-1 5.5-1.4l1.2-.7V26H51v65h-.9c-.5 0-2.5-2.4-4.4-5.3-11.1-16.8-15.1-27.8-16.4-45.5l-.5-7.2 1-1.3c.5-.6 1.3-3 1.7-5.2.3-2.2 2-6.5 3.6-9.6l3-5.5 5-5.2C48.2 1 48.4.3 44.3 2.4zM119 79v13.1l1.8-.3 1.7-.3v-25l-1.7-.3-1.8-.3V79zm96.5-4.7c6.3 10.2 10.5 23.6 10.5 33.4 0 7.7-5 25.2-7.8 27.3-.4.3-2 2.4-3.6 4.8-4.2 6.1-12.1 13.1-22 19.4-2.8 1.8-14.8 6.7-21.1 8.7-11.9 3.8-12.6 4-27 5.2l-14 1.2-13-1.6c-7.1-.9-15-2-17.5-2.5-7.2-1.4-20.5-5.5-20.8-6.4-.2-.4-1-.8-1.8-.8s-2.2-.4-3.2-.9c-.9-.5-4.6-2.4-8.2-4.1-3.6-1.8-7.2-3.9-8.1-4.6-.8-.8-1.9-1.4-2.3-1.4s-2.3-1.2-4.2-2.6c-1.9-1.5-3.4-2.4-3.4-2 0 1 6.1 6.7 12.1 11.3 4.7 3.6 7.7 5.5 17.4 10.7 1.1.6 2.2 1.3 2.5 1.6.7.7 13.3 5.6 19.7 7.6l5.3 1.6v3.3c0 1.9-.3 4-.6 4.9l-.6 1.6h-6.7l-.4-2.3-.4-2.2-.2 2.2-.1 2.3h-9.2l.6-3.2.5-3.3-1.1 3.2-1.1 3.3h-7.9l.6-4.8.7-4.7-1.6 2.9c-.8 1.5-1.5 3.7-1.5 4.7v1.9H63.7l.7-8.5.6-8.5h-.8c-.4 0-1.6 3-2.6 6.7-1.1 3.8-2.3 7.5-2.7 8.3-.5.8-2 5.1-3.4 9.5-1.5 4.4-3 8.9-3.5 10-1.4 3.4-4 11.8-4 13.2v1.3h147.2l-.7-4.3c-.3-2.3-1.1-5.6-1.6-7.3s-1.6-6.4-2.4-10.5c-.7-4.1-1.8-9.2-2.4-11.4s-1.1-5.4-1.1-7.2v-3.2l2.3-.6c3.4-.9 14.2-5.9 14.5-6.8.2-.4.9-.7 1.4-.7 1.6 0 11.4-7.6 16-12.4 7.9-8.1 11.8-15 14.8-26l2-7.6v-4.3c0-5.9-3.6-19.9-6.5-25.8-3.1-6-7.4-12.3-11.9-17.3-2-2.2-3.6-4.3-3.6-4.7s-.7-1-1.5-1.3l-1.6-.6 2.6 4.3zM115 184.4c0 1.3-.3 3.1-.6 4l-.6 1.6H109l.6-2.8c.3-1.5.7-3.3 1-4l.3-1.2h4.1v2.4zm60-1.5c0 .5.3 2.3.6 4l.7 3.1h-6.1l-.7-3-.6-3 .6-1c.3-.5 1.7-1 3.1-1h2.4v.9zm-49.7 1.8c.3.5.1 1.8-.4 3l-.8 2.3H120v-1.4c0-.8.3-2.1.6-3l.6-1.6h1.8c1.1 0 2.1.3 2.3.7zm38.7 1.2c.5 1.1 1 2.4 1 3v1.1h-5v-6h2.9l1.1 1.9zm-29.7-.3 1.5.5-.5 2-.5 1.9h-5l.6-1.6c.3-.9.6-2 .6-2.5 0-1 1.2-1.2 3.3-.3zm10.5 2.7.3 1.7H141v-4.1l1.7.3 1.8.3.3 1.8zm9.2-.3v2h-3v-1.3c0-.8.3-1.7.7-2 1.2-1.3 2.3-.7 2.3 1.3zm-82 11.4c0 .8-.3 2.1-.6 3l-.6 1.6h-6.9l-.5-1.5c-.4-.8-.4-2.2 0-3l.5-1.5H72v1.4zm11 .4c0 2.3-1.9 4.2-4.2 4.2h-1.9l-.5-1.5c-.4-.8-.4-2.2 0-3l.5-1.5H83v1.8zm9.3-1.1c.3.5.1 1.8-.4 3l-.8 2.3h-2.5c-3 0-3.7-.9-2.9-3.8l.5-2.2h2.9c1.5 0 3 .3 3.2.7zm8.9-.2c.3.3.3 1.7 0 3l-.4 2.5h-2.4c-2.8 0-3.7-1.3-2.9-4l.6-2h2.3c1.2 0 2.5.2 2.8.5zm10.6 2.2-.3 2.8-1.9.3c-1 .2-2.3-.1-2.8-.6l-1-1 1.4-2.1 1.3-2.1h3.6l-.3 2.7zm10 0-.3 2.8-2.2.3-2.3.3v-1.4c0-.9.3-2.2.6-3.1l.6-1.6h3.9l-.3 2.7zm10.7-1.7.6 1-1.1 2-1.1 2h-1.4c-1.9 0-2.5-1.2-1.8-3.8l.5-2.2h1.9c1 0 2.1.4 2.4 1zm10.3 1.7-.3 2.8-2.2.3-2.3.3v-1.4c0-.9.3-2.2.6-3.1l.6-1.6h3.9l-.3 2.7zm14 .6.3 2.9-1.8-.4-1.8-.3-.3-2.8-.3-2.9 1.8.4 1.8.3.3 2.8zM167 200l1.1 2-.6 1c-.3.6-1.3 1-2 1h-1.4l-1.1-2-1.1-2 .6-1c.3-.6 1.3-1 2-1h1.4l1.1 2zm11.4-.4c.3.9.6 2.2.6 3v1.4h-4.9l-1.1-2-1.1-2 .6-1c.3-.6 1.7-1 3-1h2.3l.6 1.6zM113.8 76.7c-.8 1-2.3 3.6-3.3 5.8l-1.9 4v16l2.6 5 2.6 5 3 1.7c1.7 1 3.9 1.8 4.9 1.8h1.9l3.2-2.8 3.1-2.7 2.1-5.3 2-5.3V87.1l-.9-.5c-.4-.3-1.1-1.8-1.4-3.4-.6-3-4.3-8.2-5.8-8.2h-.9v7h.8c.5 0 1.6 1.7 2.5 3.8l1.7 3.9v10l-1.7 3.4c-2.1 4.2-4.1 5.8-7.4 5.9h-2.6l-2-2.3-2.1-2.2-1.2-4.5-1.2-4.5.6-4.4.6-4.5 2-3.3c1.1-1.9 2-4.5 2-5.9V75h-.8c-.5 0-1.6.8-2.4 1.7z"/><path fill="#1d6cb8" d="M38.7 6.4c-7.3 5.1-11.5 9.3-15.3 15.1L20 26.9l-1.5 5.8-1.5 5.7v16.1l1.6 6.5 1.5 6.5 4.1 8.5c3.9 8 6.7 12.8 9.6 15.8.6.7 1.2 1.6 1.2 2 .1 2 16.8 19.1 25.5 26.1 10.4 8.3 12.7 9.9 16.3 11.5 1.7.8 3.2 1.9 3.2 2.4 0 .6 1.1 1.3 2.5 1.6 1.3.3 4.6 1.9 7.3 3.5s6 3.2 7.3 3.6c4.2 1.2 7.9 3 7.9 3.7 0 .5 1 .8 2.3.8 1.2 0 4.1.9 6.2 2 2.2 1.1 6.5 2.4 9.5 2.9s7.8 1.7 10.5 2.6l5 1.8h39.7l.7-1c.3-.5 2.6-1.5 5.1-2.2 7-2.1 7-2.1-1-1.4-9.2.9-15.1.9-25.5-.1l-8-.7-10-2.6c-5.5-1.4-10.9-2.9-12-3.3s-3.6-1.4-5.5-2.1c-10.6-3.8-30.2-13.5-32-15.8-.3-.3-1.6-1.2-3-1.9-4.8-2.4-15.4-10.7-21.7-17l-4.3-4.3V75.5c0-15.6.3-29 .6-29.9l.6-1.6H182v94h2.4c1.2 0 3.6-.5 5.2-1l2.9-1-.3-54.5L192 27H51l-.2 32.7-.3 32.8-4.8-6.5c-4-5.5-8-12.7-11.8-21.5-.5-1.1-1.8-5.6-2.9-9.9l-2-7.9V32.9l1.6-5.2c.8-2.9 2.5-7.4 3.7-10l2.1-4.9 4.3-4.6c6.1-6.5 5.6-7-2-1.8zm80.8 61.8c-.3 1.3-.5 7-.3 12.8l.3 10.5h3l.3-10.5c.3-11-.2-15-1.8-15-.5 0-1.2 1-1.5 2.2zm96.5 6.4c0 .6.7 1.7 1.4 2.4.8.6 2 2.8 2.7 4.8.6 2 1.5 4.2 2 4.8.5.5 1.5 3.9 2.4 7.5l1.5 6.4v6.7c0 15.9-5.3 28-18 40.8-3.2 3.2-7.7 6.8-9.9 8.1-2.3 1.2-4.1 2.6-4.1 3.1 0 .4-.4.8-1 .8-.5 0-4 1.5-7.7 3.3-7.7 3.7-18 7.1-26.8 8.8l-6 1.1-17.5.5-17.5.5-5-1.1c-2.7-.5-7.9-1.5-11.5-2.1-12.1-2.2-38.3-12.5-44-17.4-.8-.7-2.6-1.9-4-2.6l-2.5-1.2 3.7 3.3c4.8 4.4 13.6 10.8 16.8 12.2 1.4.7 2.7 1.4 3 1.7.5.6 11.1 5.7 14.8 7.1 1.2.5 3.2 1.3 4.5 1.8 1.2.5 4.3 1.5 7 2.1l4.7 1.3.1 1.1c.2 2.1-.2 7.1-.7 8.8l-.5 1.8H97l-.1-2.3v-2.2l-.9 2.2-.9 2.3H87v-2.2l-1.4 1.1-1.5 1.2-3.3-.3-3.3-.3.1-2.3c.1-2.9-1.4-2.9-1.8.1l-.3 2.2h-12l.3-6.5c.2-3.6.6-7.4.9-8.5l.5-2-1 1c-.5.5-1.9 3.9-3 7.5-2.3 7.2-4.8 14.4-6.1 17.5-1 2.3-7.1 20.8-7.1 21.5 0 .3 33 .4 73.2.2l73.3-.2-.1-.8c-.2-1.6-3.6-18.1-4.9-23.7-.8-3.3-1.9-8.6-2.5-11.7l-1.1-5.8.6-1c.3-.5 1.3-1 2-1 2.1 0 14-5.6 19.9-9.4 9.9-6.3 19.7-17.3 24.1-26.8l2.4-5.3 1.2-6.9 1.2-6.9-.7-7.3c-.4-4-1.3-9.4-2.1-12.1-1.9-6.2-9.2-18.6-14.3-24.3l-4.1-4.5-.1 1.1zM115.1 182c1.3 0 1.1 3.4-.3 6.5l-1.1 2.5h-5l.7-4.2c.4-2.2.9-4.5 1.2-5l.6-.9 1.5.5c.8.3 1.9.6 2.4.6zm60.8 3.7c1.3 4.4.8 5.3-2.9 5.3h-2.8l-.6-1.6c-.3-.9-.6-2.9-.6-4.5V182h5.9l1 3.7zm-51-1.8 1.3.9-.9 2.8-1 2.9h-4.8l.3-2.5c.5-5 1.9-6.1 5.1-4.1zm10.6 1.1c.3.5.3 2.1-.1 3.5l-.6 2.5H130v-1.3c0-.6.3-2.2.6-3.5l.6-2.2h1.9c1 0 2 .4 2.4 1zm28.9.6c.3.9.6 2.5.6 3.6v1.9l-2.2-.3-2.2-.3-.7-2.7c-.8-3-.3-3.8 2.2-3.8h1.7l.6 1.6zm-19.4.9 1.2 1.5-.6 1.5-.5 1.5H140v-1.8c0-1.8 1.8-4.2 3.1-4.2.4 0 1.2.7 1.9 1.5zm9.5 1.6v2.4l-1.8.3-1.7.3-.6-1.5-.6-1.6 1.2-1.5c.7-.9 1.8-1.4 2.4-1.2l1.1.4v2.4zm-81.5 11c0 .6-.5 1.9-1 3l-1.1 1.9h-3.8c-4.5 0-5-.3-4.3-3.5l.4-2.5H73v1.1zm9.8 1.6-.3 2.8-3.2.3-3.3.3V198h7.1l-.3 2.7zm10.2-1.3c0 .8-.3 2.1-.6 3l-.6 1.6H85v-2.3c0-3.1.7-3.7 4.7-3.7H93v1.4zm8.8 1.3-.3 2.8-2.3.3c-1.3.2-2.9.1-3.6-.1l-1.4-.5.5-2.6.5-2.6h6.9l-.3 2.7zm10.4-2.2c.3.3.3 1.7 0 3l-.4 2.5H106v-1.8c0-3.1 4.3-5.6 6.2-3.7zm10.8.9c0 .8-.3 2.1-.6 3l-.6 1.6h-2.3c-3 0-3.5-.9-2.4-3.8l.8-2.2h5.1v1.4zm10.3-.7c.3.5.1 1.8-.4 3l-.8 2.3H127v-1.4c0-.8.3-2.1.6-3l.6-1.6h2.3c1.3 0 2.6.3 2.8.7zm9.9-.2c.3.3.3 1.7 0 3l-.4 2.5h-2.4c-2.8 0-3.5-1-2.7-3.8l.5-2.2h2.2c1.3 0 2.5.2 2.8.5zm13.8.2c0 .5.3 1.8.6 3l.6 2.3H153v-6h2c1.1 0 2 .3 2 .7zm10.4.9c.3.9.6 2.2.6 3v1.5l-2.7-.3-2.8-.3-.3-2.8-.3-2.7h4.9l.6 1.6zm11.6 1.5v3l-3.2-.3-3.3-.3-.3-2.8-.3-2.7h7.1v3.1zM113.8 77.4c-.9 1.2-2.4 4-3.2 6.1l-1.7 3.9v14.1l1.9 4.6 2 4.6 3 2.2 3 2.1h4.9l3.6-3.3 3.6-3.2 1.8-6.7 1.7-6.7-1.7-7.2-1.7-7.2-2.5-2.9-2.5-3-.7 1.7-.6 1.7 2.7 5.2 2.6 5.1v11.6l-2 4-2.1 4-2.4 1.1-2.5 1.1-2.5-1.1-2.4-1.1-2.1-4-2-4v-12l2.1-3.7 2-3.7-.3-2.7-.3-2.8-1.7 2.2z"/><path fill="#243284" d="M119.5 68.2c-.3 1.3-.5 7-.3 12.8l.3 10.5h3l.3-10.5c.3-11-.2-15-1.8-15-.5 0-1.2 1-1.5 2.2zm96.5 6.4c0 .6.7 1.7 1.4 2.4.8.6 2 2.8 2.7 4.8.6 2 1.5 4.2 2 4.8.5.5 1.5 3.9 2.4 7.5l1.5 6.4v6.7c0 15.9-5.3 28-18 40.8-3.2 3.2-7.7 6.8-9.9 8.1-2.3 1.2-4.1 2.6-4.1 3.1 0 .4-.4.8-1 .8-.5 0-4 1.5-7.7 3.3-7.7 3.7-18 7.1-26.8 8.8l-6 1.1-17.5.5-17.5.5-5-1.1c-2.7-.5-7.9-1.5-11.5-2.1-12.1-2.2-38.3-12.5-44-17.4-.8-.7-2.6-1.9-4-2.6l-2.5-1.2 3.7 3.3c4.8 4.4 13.6 10.8 16.8 12.2 1.4.7 2.7 1.4 3 1.7.5.6 11.1 5.7 14.8 7.1 1.2.5 3.2 1.3 4.5 1.8 1.2.5 4.3 1.5 7 2.1l4.7 1.3.1 1.1c.2 2.1-.2 7.1-.7 8.8l-.5 1.8H97l-.1-2.3v-2.2l-.9 2.2-.9 2.3H87v-2.2l-1.4 1.1-1.5 1.2-3.3-.3-3.3-.3.1-2.3c.1-2.9-1.4-2.9-1.8.1l-.3 2.2h-12l.3-6.5c.2-3.6.6-7.4.9-8.5l.5-2-1 1c-.5.5-1.9 3.9-3 7.5-2.3 7.2-4.8 14.4-6.1 17.5-1 2.3-7.1 20.8-7.1 21.5 0 .3 33 .4 73.2.2l73.3-.2-.1-.8c-.2-1.6-3.6-18.1-4.9-23.7-.8-3.3-1.9-8.6-2.5-11.7l-1.1-5.8.6-1c.3-.5 1.3-1 2-1 2.1 0 14-5.6 19.9-9.4 9.9-6.3 19.7-17.3 24.1-26.8l2.4-5.3 1.2-6.9 1.2-6.9-.7-7.3c-.4-4-1.3-9.4-2.1-12.1-1.9-6.2-9.2-18.6-14.3-24.3l-4.1-4.5-.1 1.1zM115.1 182c1.3 0 1.1 3.4-.3 6.5l-1.1 2.5h-5l.7-4.2c.4-2.2.9-4.5 1.2-5l.6-.9 1.5.5c.8.3 1.9.6 2.4.6zm60.8 3.7c1.3 4.4.8 5.3-2.9 5.3h-2.8l-.6-1.6c-.3-.9-.6-2.9-.6-4.5V182h5.9l1 3.7zm-51-1.8 1.3.9-.9 2.8-1 2.9h-4.8l.3-2.5c.5-5 1.9-6.1 5.1-4.1zm10.6 1.1c.3.5.3 2.1-.1 3.5l-.6 2.5H130v-1.3c0-.6.3-2.2.6-3.5l.6-2.2h1.9c1 0 2 .4 2.4 1zm28.9.6c.3.9.6 2.5.6 3.6v1.9l-2.2-.3-2.2-.3-.7-2.7c-.8-3-.3-3.8 2.2-3.8h1.7l.6 1.6zm-19.4.9 1.2 1.5-.6 1.5-.5 1.5H140v-1.8c0-1.8 1.8-4.2 3.1-4.2.4 0 1.2.7 1.9 1.5zm9.5 1.6v2.4l-1.8.3-1.7.3-.6-1.5-.6-1.6 1.2-1.5c.7-.9 1.8-1.4 2.4-1.2l1.1.4v2.4zm-81.5 11c0 .6-.5 1.9-1 3l-1.1 1.9h-3.8c-4.5 0-5-.3-4.3-3.5l.4-2.5H73v1.1zm9.8 1.6-.3 2.8-3.2.3-3.3.3V198h7.1l-.3 2.7zm10.2-1.3c0 .8-.3 2.1-.6 3l-.6 1.6H85v-2.3c0-3.1.7-3.7 4.7-3.7H93v1.4zm8.8 1.3-.3 2.8-2.3.3c-1.3.2-2.9.1-3.6-.1l-1.4-.5.5-2.6.5-2.6h6.9l-.3 2.7zm10.4-2.2c.3.3.3 1.7 0 3l-.4 2.5H106v-1.8c0-3.1 4.3-5.6 6.2-3.7zm10.8.9c0 .8-.3 2.1-.6 3l-.6 1.6h-2.3c-3 0-3.5-.9-2.4-3.8l.8-2.2h5.1v1.4zm10.3-.7c.3.5.1 1.8-.4 3l-.8 2.3H127v-1.4c0-.8.3-2.1.6-3l.6-1.6h2.3c1.3 0 2.6.3 2.8.7zm9.9-.2c.3.3.3 1.7 0 3l-.4 2.5h-2.4c-2.8 0-3.5-1-2.7-3.8l.5-2.2h2.2c1.3 0 2.5.2 2.8.5zm13.8.2c0 .5.3 1.8.6 3l.6 2.3H153v-6h2c1.1 0 2 .3 2 .7zm10.4.9c.3.9.6 2.2.6 3v1.5l-2.7-.3-2.8-.3-.3-2.8-.3-2.7h4.9l.6 1.6zm11.6 1.5v3l-3.2-.3-3.3-.3-.3-2.8-.3-2.7h7.1v3.1z"/></svg>